<svg width="52" height="51" viewBox="0 0 52 51" fill="none" xmlns="http://www.w3.org/2000/svg">
<path fill-rule="evenodd" clip-rule="evenodd" d="M15.0463 0.223096C17.7774 0.10002 18.65 0.0703125 25.6035 0.0703125C32.557 0.0703125 33.4296 0.10002 36.1607 0.223096C40.3213 0.411954 43.9762 1.42627 46.9099 4.34401C49.8436 7.26175 50.8635 10.8967 51.0534 15.0346C51.1771 17.7508 51.207 18.6187 51.207 25.5343C51.207 32.4498 51.1771 33.3177 51.0534 36.0339C50.8635 40.1718 49.8436 43.8068 46.9099 46.7245C43.9762 49.6422 40.3213 50.6566 36.1607 50.8454C33.4296 50.9685 32.557 50.9982 25.6035 50.9982C18.65 50.9982 17.7774 50.9685 15.0463 50.8454C10.8858 50.6566 7.23086 49.6422 4.29712 46.7245C1.36339 43.8068 0.343514 40.1718 0.153621 36.0339C0.0298708 33.3177 0 32.4498 0 25.5343C0 18.6187 0.0298708 17.7508 0.153621 15.0346C0.343514 10.8967 1.36339 7.26175 4.29712 4.34401C7.23086 1.42627 10.8858 0.411954 15.0463 0.223096ZM35.9479 4.80674C33.2488 4.68367 32.4381 4.6582 25.6019 4.6582C18.7658 4.6582 17.955 4.68367 15.256 4.80674C12.3415 4.93831 9.63815 5.51973 7.55787 7.58868C5.47758 9.65762 4.89297 12.3462 4.76068 15.2448C4.63693 17.9292 4.61133 18.7355 4.61133 25.5344C4.61133 32.3333 4.63693 33.1396 4.76068 35.824C4.89297 38.7226 5.47758 41.4112 7.55787 43.4801C9.63815 45.5491 12.3415 46.1305 15.256 46.262C17.955 46.3851 18.7658 46.4106 25.6019 46.4106C32.4381 46.4106 33.2488 46.3851 35.9479 46.262C38.8624 46.1305 41.5657 45.5491 43.646 43.4801C45.7263 41.4112 46.3109 38.7226 46.4432 35.824C46.5669 33.1396 46.5925 32.3333 46.5925 25.5344C46.5925 18.7355 46.5669 17.9292 46.4432 15.2448C46.3109 12.3462 45.7263 9.65762 43.646 7.58868C41.5657 5.51973 38.8624 4.93831 35.9479 4.80674ZM12.4512 25.5328C12.4512 18.3116 18.3378 12.457 25.5986 12.457C32.8593 12.457 38.7459 18.3116 38.7459 25.5328C38.7459 32.7539 32.8593 38.6085 25.5986 38.6085C18.3378 38.6085 12.4512 32.7539 12.4512 25.5328ZM17.0625 25.5329C17.0625 30.2204 20.8838 34.0209 25.597 34.0209C30.3102 34.0209 34.1315 30.2204 34.1315 25.5329C34.1315 20.8454 30.3102 17.0449 25.597 17.0449C20.8838 17.0449 17.0625 20.8454 17.0625 25.5329ZM42.3382 11.9424C42.3382 13.63 40.9626 14.9981 39.2658 14.9981C37.5689 14.9981 36.1934 13.63 36.1934 11.9424C36.1934 10.2548 37.5689 8.88672 39.2658 8.88672C40.9626 8.88672 42.3382 10.2548 42.3382 11.9424Z" fill="#8A2666"/>
</svg>
