<svg width="51" height="41" viewBox="0 0 51 41" fill="none" xmlns="http://www.w3.org/2000/svg">
<path d="M5.1 41C3.6975 41 2.49645 40.4977 1.49685 39.4932C0.497254 38.4887 -0.00169567 37.2827 4.32937e-06 35.875V5.125C4.32937e-06 3.71563 0.499804 2.50869 1.4994 1.50419C2.499 0.499691 3.6992 -0.00170398 5.1 4.3506e-06H45.9C47.3025 4.3506e-06 48.5035 0.502254 49.5031 1.50675C50.5027 2.51125 51.0017 3.71734 51 5.125V35.875C51 37.2844 50.5002 38.4913 49.5006 39.4958C48.501 40.5003 47.3008 41.0017 45.9 41H5.1ZM25.5 23.0625L5.1 10.25V35.875H45.9V10.25L25.5 23.0625ZM25.5 17.9375L45.9 5.125H5.1L25.5 17.9375ZM5.1 10.25V5.125V35.875V10.25Z" fill="#8A2666"/>
</svg>
