<svg width="150" height="184" viewBox="0 0 150 184" fill="#D7DC74" xmlns="http://www.w3.org/2000/svg">
<path d="M28.9873 125.747C29.1694 125.601 29.1694 125.456 29.1694 125.31C28.9873 125.456 28.9509 125.601 28.9873 125.747Z"  />
<path d="M28.6978 118.209H28.37C28.3336 117.845 28.7342 118.063 28.6249 117.736C28.1515 117.663 28.5885 117.189 28.3336 117.116C28.37 117.116 28.37 116.971 28.5157 116.934C28.2608 116.934 28.4428 116.789 28.37 116.716C28.2972 116.679 28.2972 116.716 28.2243 116.789L28.1151 116.534C28.1879 116.461 28.3336 116.425 28.37 116.497C28.4064 115.878 28.37 113.001 28.1879 112.346C28.0058 112.455 28.1515 112.637 27.8602 112.746C27.6781 112.601 27.8966 112.491 27.7145 112.419C28.1515 112.309 27.7509 112.054 28.1879 111.872L27.933 111.836L28.0787 111.763C27.7873 110.998 27.9694 111.581 27.9694 110.926C27.8966 110.525 27.5688 110.343 27.6781 110.124C27.6781 110.161 27.5324 110.27 27.4596 110.161C27.6781 110.124 27.2775 109.906 27.496 109.833C27.4596 109.76 27.4596 109.432 27.1683 109.542C27.3139 109.469 27.3868 109.214 27.496 109.36C27.5324 109.25 27.5688 109.178 27.496 109.105L27.4232 109.214C27.3503 108.923 27.5688 108.704 27.2775 108.522L27.1683 108.631C27.1318 108.449 27.0954 108.304 27.3868 108.194L27.496 108.376C27.4596 108.049 27.4596 107.867 27.2775 107.612V107.721C26.9498 107.393 26.5856 105.609 26.2214 105.281L26.0029 105.463L25.7844 105.172C25.7844 105.208 26.5492 105.281 26.4763 105.317C26.3671 104.735 26.1486 101.676 26.2943 101.129C26.4035 100.911 26.6584 101.093 26.6948 101.093C26.5856 100.838 26.4399 100.984 26.4399 100.765C26.5128 100.692 26.622 100.765 26.6584 100.802C26.6584 100.692 26.7313 100.62 26.622 100.583C26.5128 100.729 26.2578 100.692 26.0393 100.729L26.0758 100.438H26.2578C26.2578 100.401 25.748 100.292 25.8573 100.001C25.9301 99.5271 25.8573 99.0173 25.8573 98.5075C25.9665 98.5075 26.0393 98.6167 26.1122 98.726C26.1122 98.6531 26.0758 98.5439 26.1486 98.5075C25.9665 98.6167 26.0393 98.289 25.9665 98.3982C25.4931 98.0341 25.8937 97.5606 25.6023 97.2693C25.2018 97.2329 18.7196 96.6138 18.2462 96.5774C18.2462 96.5046 18.2462 96.3953 18.2826 96.3589C18.1733 96.3953 18.1369 96.5774 18.1733 96.6866L18.4282 96.7231C18.5375 96.9416 18.2826 96.7595 18.319 97.0144C18.1005 97.0144 18.0641 96.7959 18.0277 96.6138C18.0277 96.7959 17.882 96.9416 18.1005 97.0144C18.0277 97.1965 17.8456 97.0144 17.7363 97.1965C17.8092 97.3421 18.0277 97.5242 17.9184 97.6699H17.882C17.6635 98.0705 18.2097 98.289 17.9912 98.6531L17.9184 98.6167C17.8092 98.726 17.9548 98.9809 17.8456 99.1994C17.882 99.1266 18.0277 99.0901 18.0641 99.2358C17.9184 99.4907 18.0641 99.6728 17.9184 99.8549L18.1369 100.037C18.1005 100.947 18.4282 104.553 18.5739 105.427L18.5375 105.39C18.7196 106.774 18.8652 109.651 19.2294 111.071C19.0109 111.29 19.0837 111.581 19.0473 111.836C19.1202 111.69 19.2658 111.727 19.2658 111.836C19.3022 112.528 19.4115 111.872 19.5572 112.564C19.8121 113.366 19.9213 116.534 19.8121 117.299C20.1398 117.663 19.9577 118.173 20.2127 118.537L20.1398 118.5C20.2127 118.682 20.2127 119.374 20.2491 120.066C20.2855 120.795 20.3947 121.523 20.4676 121.741L20.504 121.669C20.7589 122.069 20.4312 122.033 20.3583 122.397C20.6861 122.324 20.941 122.652 20.9774 122.761H20.9046C21.0138 122.98 21.378 123.417 21.4508 123.744H21.2688C21.5237 123.999 21.5237 124.545 21.5601 124.764C21.5601 125.237 21.378 126.002 21.7058 126.585L21.2688 127.095L21.3416 127.167C21.3416 127.131 27.5688 126.548 28.7342 125.529L28.9163 125.492L28.8798 125.347C28.9527 125.165 28.7342 125.092 28.9163 125.092V125.347C28.9527 125.128 29.0619 125.237 29.1712 125.31C29.1712 125.237 29.1712 125.128 29.244 125.055C29.1712 125.055 29.1712 125.128 29.1348 125.165C29.0619 125.055 28.8434 124.946 28.9163 124.837C28.9163 124.618 29.2076 124.764 29.2076 124.545C29.1348 123.38 29.1712 122.215 28.9527 121.086C29.0255 121.049 29.0255 121.086 29.0619 121.122C28.9527 120.758 28.9163 120.467 28.807 120.139C28.8434 120.066 28.9527 120.03 29.0255 119.993C28.8798 120.066 28.6249 118.245 28.6978 118.209Z" />
<path d="M46.431 29.3884C46.6131 29.2427 46.6131 29.0971 46.6495 28.9514C46.4674 29.0971 46.3946 29.2427 46.431 29.3884Z"  />
<path d="M35.4707 0.109131C35.4707 0.145548 35.5071 0.218381 35.5071 0.254798C35.5071 0.218381 35.5071 0.145548 35.4707 0.109131Z"  />
<path d="M46.1418 21.85H45.8141C45.7776 21.4859 46.1782 21.7044 46.069 21.3766C45.5956 21.3038 46.069 20.8304 45.8141 20.7575C45.8505 20.7575 45.8505 20.6119 45.9961 20.5755C45.7412 20.5755 45.9233 20.4298 45.8505 20.357C45.7776 20.3205 45.7776 20.357 45.7048 20.3934L45.5956 20.1749C45.6684 20.102 45.8141 20.0656 45.8505 20.1385C45.8869 19.5194 45.8141 16.6424 45.632 15.9869C45.4499 16.0962 45.5956 16.2783 45.3042 16.3875C45.1221 16.2419 45.3406 16.1326 45.1586 16.0598C45.5956 15.9505 45.2314 15.6956 45.6684 15.5135L45.4135 15.4771L45.5591 15.4043C45.2678 14.6395 45.4135 15.2222 45.4499 14.5303C45.3771 14.1661 45.0129 13.984 45.1221 13.7655C45.1221 13.8019 44.9765 13.9112 44.9036 13.8019C45.1221 13.7655 44.758 13.547 44.9765 13.4742C44.9401 13.4014 44.9401 13.0736 44.6487 13.1829C44.7944 13.11 44.8308 12.8187 44.9765 13.0008C44.9765 12.8915 45.0129 12.7823 44.9401 12.7459L44.8672 12.8551C44.7944 12.5274 45.0493 12.3453 44.758 12.1632L44.6487 12.2724C44.6123 12.0904 44.5759 11.9083 44.8672 11.8354L44.9765 12.0175C44.9401 11.6898 44.9036 11.5077 44.7216 11.2528V11.362C44.4302 11.0343 44.0661 9.21343 43.6655 8.9221L43.447 9.06777L43.2285 8.81285C43.2285 8.84927 43.9932 8.9221 43.9204 8.95852C43.8476 8.37585 43.5926 5.31684 43.7383 4.77059C43.884 4.55209 44.1025 4.73418 44.1389 4.73418C44.0661 4.47926 43.9204 4.62493 43.9204 4.40642C43.9568 4.33359 44.1025 4.40642 44.1389 4.44284C44.1025 4.33359 44.1753 4.22434 44.0661 4.22434C43.9932 4.37001 43.7019 4.29717 43.5198 4.37001L43.5562 4.07867H43.7383C43.7383 4.00584 43.2285 3.93301 43.3013 3.64167C43.3741 3.16826 43.3013 2.622 43.3377 2.14859C43.447 2.14859 43.5198 2.25784 43.5926 2.36709C43.5926 2.29425 43.5562 2.185 43.6291 2.14859C43.447 2.25784 43.5198 1.93009 43.4106 2.03934C42.9736 1.67517 43.3741 1.20175 43.0464 0.910418C42.6458 0.874002 36.1636 0.254917 35.6902 0.2185C35.6902 0.145667 35.7266 0.0364167 35.763 0C35.6538 0.0364167 35.581 0.2185 35.6538 0.327751L35.9087 0.364167C36.018 0.582668 35.763 0.400584 35.7995 0.655501C35.581 0.655501 35.5081 0.437001 35.5081 0.254917C35.4717 0.437001 35.326 0.582668 35.5445 0.655501C35.4717 0.837585 35.2896 0.655501 35.2168 0.837585C35.2896 0.983252 35.5081 1.16534 35.3625 1.311H35.326C35.144 1.71159 35.6538 1.93009 35.4717 2.29425L35.3989 2.25784C35.2532 2.36709 35.4353 2.622 35.326 2.84051C35.3625 2.76767 35.5081 2.73125 35.5445 2.84051C35.3989 3.13184 35.5445 3.31392 35.3625 3.49601L35.581 3.67809C35.581 4.58851 35.9087 8.19376 36.018 9.06777L35.9815 9.03135C36.1636 10.4152 36.3093 13.2921 36.6735 14.7124C36.4914 14.9309 36.5642 15.2222 36.5278 15.4771C36.6006 15.3314 36.7463 15.3679 36.7463 15.4771C36.7463 16.169 36.8555 15.5135 37.0012 16.2054C37.2926 17.0066 37.3654 20.1749 37.2926 20.9396C37.6203 21.3038 37.4382 21.8136 37.6567 22.1778L37.5839 22.1414C37.6567 22.3235 37.6931 23.0154 37.7296 23.7073C37.766 24.4356 37.8388 25.1275 37.9481 25.3825L37.9845 25.3096C38.203 25.7102 37.8752 25.6738 37.8388 26.038C38.1666 25.9287 38.4215 26.2929 38.4579 26.4021H38.3851C38.4579 26.6206 38.8221 27.0576 38.9313 27.3854H38.7492C38.9677 27.6403 39.0041 28.1866 39.0406 28.4051C39.0406 28.8785 38.8221 29.6432 39.1862 30.2259L38.7128 30.7357L38.7856 30.7721C38.7856 30.7721 45.0129 30.1895 46.2147 29.1698L46.3967 29.1334L46.3603 28.9877C46.3967 28.7692 46.1782 28.7328 46.3603 28.7328L46.3967 28.9877C46.3967 28.7692 46.5424 28.8785 46.6517 28.9513C46.6517 28.8421 46.6517 28.7692 46.6881 28.6964C46.6152 28.6964 46.6152 28.7328 46.5788 28.7692C46.506 28.6964 46.3239 28.5871 46.3967 28.4415C46.3603 28.2594 46.6881 28.4051 46.6517 28.1866C46.6152 27.0212 46.6517 25.8559 46.4332 24.727C46.506 24.6905 46.506 24.727 46.5424 24.7634C46.3967 24.3992 46.3967 24.1079 46.2511 23.7801C46.3239 23.7073 46.4332 23.6709 46.506 23.6345C46.3239 23.7073 46.1054 21.8865 46.1418 21.85Z"  />
<path d="M53.5325 146.65C53.7146 146.577 53.7146 146.432 53.751 146.286C53.569 146.395 53.4961 146.505 53.5325 146.65Z"  />
<path d="M54.1172 139.585L53.7894 139.549C53.753 139.221 54.1536 139.476 54.0443 139.148C53.6073 139.039 54.0808 138.638 53.8258 138.565C53.8623 138.565 53.8987 138.42 54.0443 138.42C53.7894 138.383 53.9715 138.274 53.8987 138.165C53.8258 138.128 53.8258 138.201 53.753 138.238L53.6438 138.019C53.7166 137.946 53.8623 137.91 53.8987 137.983C53.9715 137.437 54.1172 134.742 53.9715 134.123C53.7894 134.232 53.9351 134.378 53.6438 134.487C53.4617 134.341 53.6802 134.232 53.4981 134.195C53.9715 134.086 53.6073 133.831 54.0443 133.686L53.7894 133.649L53.9715 133.576C53.6802 132.921 53.8258 133.431 53.8623 132.812C53.8258 132.484 53.4617 132.338 53.5709 132.12C53.5709 132.156 53.4253 132.229 53.3524 132.156C53.5709 132.12 53.2068 131.901 53.4253 131.865C53.3888 131.756 53.4253 131.464 53.0975 131.573C53.2796 131.537 53.316 131.282 53.4617 131.428C53.4617 131.319 53.4981 131.246 53.4253 131.173L53.3524 131.319C53.316 131.027 53.5345 130.845 53.2432 130.663L53.1339 130.772C53.0975 130.59 53.0975 130.445 53.3888 130.372L53.4617 130.554C53.4617 130.262 53.4253 130.08 53.2796 129.862V129.935C52.9518 129.643 52.6605 128.041 52.2963 127.75L52.0414 127.895L51.8593 127.64C51.8593 127.677 52.6241 127.75 52.5513 127.786C52.5148 127.24 52.2599 124.509 52.3692 124.035C52.5148 123.853 52.7698 123.999 52.8062 123.999C52.6969 123.744 52.5513 123.89 52.5513 123.707C52.5877 123.635 52.7333 123.707 52.7698 123.744C52.7333 123.635 52.8062 123.562 52.6969 123.562C52.6241 123.671 52.3328 123.635 52.1507 123.671L52.1871 123.416H52.3692C52.3692 123.38 51.8593 123.27 51.9322 123.016C52.005 122.579 51.9322 122.105 51.9686 121.668C52.0778 121.705 52.1507 121.777 52.2235 121.887C52.2235 121.814 52.1871 121.741 52.2599 121.668C52.0778 121.777 52.1143 121.486 52.0414 121.559C51.6044 121.268 51.9686 120.83 51.6773 120.576C51.2767 120.539 44.7945 119.956 44.3211 119.956C44.3211 119.884 44.3211 119.774 44.3575 119.774C44.2482 119.774 44.2118 119.956 44.2847 120.066H44.5396C44.6124 120.284 44.3575 120.102 44.3939 120.321C44.1754 120.357 44.139 120.139 44.1026 119.993C44.1026 120.139 43.9569 120.284 44.1754 120.357C44.1026 120.503 43.9205 120.321 43.8477 120.503C43.8841 120.612 44.1026 120.794 43.9933 120.94H43.9569C43.7384 121.268 44.2847 121.45 44.0662 121.777L43.9933 121.741C43.8841 121.85 44.0662 122.069 43.9205 122.251C43.9933 122.214 44.139 122.142 44.139 122.287C44.0297 122.506 44.1754 122.651 43.9933 122.833L44.2118 122.979C44.2118 123.78 44.576 126.949 44.6124 127.75V127.713C44.7217 128.951 44.7945 131.464 45.0858 132.702C44.9037 132.921 44.9766 133.176 44.9037 133.394C44.9766 133.285 45.1222 133.321 45.1222 133.394C45.1222 134.013 45.2679 133.431 45.3772 134.05C45.5957 134.778 45.45 137.473 45.3043 138.128C45.6321 138.456 45.4136 138.857 45.5957 139.185H45.5228C45.6685 139.512 45.45 141.552 45.5592 141.952L45.5957 141.879C45.8142 142.244 45.4864 142.207 45.3772 142.498C45.7049 142.426 45.9234 142.753 45.9598 142.863H45.887C45.9234 143.045 46.2512 143.445 46.2876 143.737H46.1055C46.324 143.955 46.2512 144.429 46.2876 144.611C46.2147 145.011 45.9234 145.63 46.1783 146.177L45.6685 146.504L45.7413 146.577C45.7413 146.577 52.005 147.123 53.316 146.395H53.4981L53.4617 146.249C53.5345 146.104 53.3524 146.031 53.5345 146.031L53.4981 146.249C53.5345 146.104 53.6438 146.213 53.753 146.286C53.7894 146.213 53.7894 146.14 53.8623 146.067C53.7894 146.031 53.7894 146.104 53.7166 146.14C53.6802 146.031 53.4981 145.922 53.5709 145.776C53.5709 145.63 53.8623 145.776 53.8623 145.557C53.9715 144.465 54.1536 143.409 54.0808 142.316C54.1536 142.28 54.1536 142.316 54.19 142.353C54.0808 142.025 54.1172 141.734 54.0079 141.406C54.1172 141.333 54.2264 141.297 54.2993 141.297C54.1536 141.333 54.0808 139.622 54.1172 139.585Z"  />
<path d="M85.9054 140.824C86.0875 140.751 86.1239 140.605 86.1603 140.496C85.9418 140.605 85.869 140.715 85.9054 140.824Z"  />
<path d="M86.5247 134.196L86.1969 134.159C86.1605 133.868 86.5611 134.087 86.4883 133.795C86.0148 133.686 86.4883 133.322 86.2698 133.213C86.3062 133.213 86.3062 133.067 86.4519 133.067C86.1969 133.031 86.379 132.958 86.3062 132.848C86.2333 132.812 86.2333 132.885 86.1605 132.921L86.0877 132.703C86.1605 132.63 86.3062 132.594 86.3426 132.703C86.4154 132.157 86.5611 129.607 86.4154 129.061C86.2333 129.134 86.379 129.28 86.0513 129.389C85.9056 129.243 86.1241 129.17 85.942 129.098C86.379 129.025 86.0513 128.77 86.4883 128.624L86.2333 128.588L86.379 128.515C86.0877 127.859 86.2333 128.369 86.2698 127.787C86.2333 127.459 85.8692 127.313 86.0148 127.131C86.0148 127.167 85.8692 127.24 85.7963 127.167C86.0148 127.131 85.6143 126.949 85.8328 126.876C85.7963 126.803 85.8328 126.548 85.5414 126.658C85.6871 126.585 85.7235 126.33 85.8692 126.476C85.8692 126.403 85.9056 126.33 85.8328 126.257L85.7599 126.366C85.7235 126.111 85.942 125.929 85.6507 125.784L85.5414 125.893C85.5414 125.711 85.505 125.565 85.7963 125.492L85.9056 125.674C85.8692 125.383 85.8692 125.237 85.6871 125.019V125.092C85.3593 124.8 85.068 123.307 84.7038 123.052L84.4489 123.198L84.2668 122.943C84.2668 122.98 85.0316 123.052 84.9588 123.089C84.9223 122.579 84.631 120.03 84.7767 119.593C84.9223 119.374 85.1408 119.52 85.1773 119.556C85.1044 119.301 84.9223 119.447 84.9588 119.265C84.9952 119.192 85.1408 119.265 85.1773 119.301C85.1408 119.229 85.2137 119.119 85.1044 119.119C85.0316 119.229 84.7403 119.192 84.5582 119.229V119.01H84.7403C84.7403 118.937 84.2668 118.864 84.3397 118.646C84.4125 118.245 84.3397 117.772 84.3397 117.371C84.4853 117.371 84.5218 117.481 84.5946 117.553C84.5946 117.517 84.5582 117.408 84.6674 117.371C84.4489 117.481 84.5218 117.189 84.4489 117.262C83.9755 116.971 84.3761 116.607 84.0848 116.315C83.6842 116.315 77.1656 115.805 76.6922 115.769C76.6922 115.696 76.7286 115.623 76.765 115.587C76.6558 115.587 76.5829 115.769 76.6558 115.842L76.9107 115.878C77.0199 116.06 76.765 115.915 76.8014 116.097C76.5829 116.133 76.5465 115.951 76.5101 115.769C76.4737 115.915 76.328 116.06 76.5829 116.133C76.4737 116.279 76.328 116.097 76.2188 116.279C76.2916 116.388 76.5101 116.534 76.3644 116.679C76.1459 117.007 76.6922 117.153 76.4737 117.481L76.4008 117.444C76.2916 117.553 76.4737 117.736 76.328 117.954C76.3644 117.881 76.5101 117.845 76.5465 117.954C76.4373 118.173 76.5465 118.318 76.4008 118.464L76.6193 118.61C76.5829 119.374 76.9835 122.36 77.0563 123.125L77.0199 123.089C77.1656 124.254 77.202 126.621 77.5298 127.787C77.3477 127.969 77.3841 128.224 77.3477 128.442C77.4205 128.333 77.5662 128.369 77.5662 128.442C77.5662 129.025 77.7118 128.478 77.7847 129.025C78.0032 129.68 77.8939 132.229 77.7118 132.848C78.0396 133.14 77.8211 133.54 78.0032 133.868L77.9303 133.832C78.076 134.159 77.8575 136.053 77.9668 136.417L78.0032 136.381C78.2217 136.709 77.8939 136.672 77.7847 136.927C78.1124 136.891 78.3309 137.182 78.3673 137.291H78.2945C78.3309 137.437 78.6587 137.838 78.6951 138.092H78.513C78.7315 138.311 78.6587 138.748 78.6587 138.93C78.6223 139.294 78.2945 139.877 78.5494 140.387L78.076 140.714L78.1124 140.751C78.1124 140.751 84.3761 141.297 85.6871 140.605H85.8692V140.46C85.942 140.314 85.7235 140.241 85.9056 140.241V140.46C85.942 140.314 86.0513 140.423 86.1605 140.496C86.1605 140.423 86.1969 140.35 86.2333 140.314C86.1605 140.277 86.1605 140.314 86.1241 140.35C86.0513 140.241 85.8692 140.132 85.9784 140.023C85.9784 139.877 86.2698 140.023 86.2698 139.84C86.379 138.784 86.5611 137.801 86.4883 136.745C86.5611 136.709 86.5611 136.745 86.5975 136.781C86.4883 136.49 86.5247 136.199 86.4154 135.907C86.5247 135.835 86.6339 135.798 86.7068 135.798C86.5611 135.835 86.4883 134.196 86.5247 134.196Z"  />
<path d="M10.0851 152.696C10.2672 152.623 10.3036 152.477 10.34 152.332C10.1579 152.441 10.0487 152.55 10.0851 152.696Z"  />
<path d="M10.7063 146.031H10.3786C10.3422 145.704 10.7427 145.922 10.6699 145.631C10.1965 145.558 10.7063 145.157 10.4514 145.084C10.4878 145.084 10.4878 144.939 10.6335 144.939C10.3786 144.902 10.5607 144.793 10.4878 144.72C10.415 144.684 10.415 144.72 10.3422 144.757L10.2693 144.575C10.3422 144.502 10.4878 144.465 10.5242 144.538C10.5971 144.028 10.7427 141.479 10.5971 140.897C10.415 140.969 10.5607 141.151 10.2329 141.224C10.0872 141.079 10.3057 141.006 10.1237 140.969C10.5607 140.86 10.2329 140.605 10.6699 140.496L10.415 140.46L10.5607 140.387C10.2693 139.731 10.415 140.205 10.4514 139.658C10.415 139.331 10.0508 139.185 10.1965 139.003C10.1965 139.039 10.0508 139.112 9.97799 139.003C10.1965 139.003 9.79591 138.784 10.0144 138.748C9.97799 138.675 10.0144 138.384 9.72307 138.493C9.86874 138.457 9.90516 138.202 10.0508 138.347C10.0508 138.275 10.0872 138.165 10.0144 138.129L9.94157 138.238C9.90516 137.947 10.1237 137.801 9.83232 137.619L9.72307 137.728C9.72307 137.583 9.68666 137.437 9.97799 137.364L10.0872 137.51C10.0508 137.255 10.0508 137.109 9.86874 136.854V136.964C9.54099 136.672 9.24966 135.179 8.88549 134.924L8.63057 135.033L8.44849 134.815C8.44849 134.851 9.21324 134.924 9.14041 134.924C9.10399 134.451 8.81265 131.902 8.95832 131.428C9.10399 131.246 9.32249 131.392 9.35891 131.392C9.28607 131.173 9.14041 131.319 9.14041 131.1C9.17682 131.064 9.32249 131.137 9.35891 131.137C9.32249 131.064 9.39532 130.991 9.28607 130.991C9.21324 131.1 8.9219 131.064 8.73982 131.1V130.846H8.9219C8.9219 130.809 8.44849 130.736 8.52132 130.481C8.59415 130.081 8.52132 129.644 8.55774 129.243C8.66699 129.243 8.7034 129.316 8.77624 129.425C8.77624 129.352 8.73982 129.28 8.84907 129.243C8.63057 129.316 8.7034 129.061 8.63057 129.134C8.15715 128.843 8.55774 128.442 8.2664 128.187C7.86582 128.151 1.34723 127.677 0.873808 127.641C0.873808 127.532 0.910225 127.459 0.946642 127.422C0.837391 127.459 0.764558 127.641 0.837391 127.714H1.09231C1.20156 127.932 0.946642 127.787 0.983058 127.969C0.764558 127.969 0.728141 127.787 0.691724 127.641C0.655308 127.787 0.509641 127.932 0.764558 128.005C0.655308 128.114 0.509641 127.969 0.400391 128.151C0.473224 128.26 0.691724 128.406 0.582474 128.551H0.546058C0.327557 128.879 0.873808 129.025 0.655308 129.316L0.582474 129.28C0.473224 129.389 0.655308 129.607 0.509641 129.789C0.546058 129.753 0.691724 129.68 0.728141 129.789C0.618891 130.008 0.728141 130.19 0.582474 130.336L0.800975 130.481C0.764558 131.246 1.16514 134.232 1.23798 134.961H1.20156C1.34723 136.09 1.38364 138.457 1.71139 139.658C1.52931 139.84 1.56573 140.095 1.52931 140.277C1.60214 140.168 1.74781 140.205 1.74781 140.314C1.74781 140.86 1.89348 140.314 1.96631 140.897C2.18481 141.552 2.07556 144.101 1.89348 144.684C2.22123 145.012 2.00273 145.412 2.18481 145.704L2.14839 145.667C2.25764 145.995 2.03914 147.889 2.14839 148.289L2.18481 148.216C2.40331 148.58 2.07556 148.508 1.96631 148.799C2.29406 148.763 2.51256 149.054 2.54898 149.163H2.47614C2.51256 149.309 2.84031 149.673 2.87673 149.964H2.69464C2.91314 150.183 2.84031 150.62 2.84031 150.765C2.80389 151.166 2.47614 151.749 2.76748 152.222L2.25764 152.55L2.29406 152.623C2.29406 152.623 8.55774 153.133 9.90516 152.477H10.0508V152.331C10.1237 152.186 9.90516 152.113 10.0872 152.113V152.331C10.1237 152.186 10.2329 152.295 10.3422 152.331C10.3422 152.295 10.3786 152.222 10.415 152.149C10.3422 152.113 10.3422 152.186 10.3057 152.186C10.2329 152.113 10.0508 152.004 10.1601 151.894C10.1601 151.712 10.4514 151.894 10.4514 151.676C10.5607 150.656 10.7427 149.637 10.6699 148.617C10.7427 148.58 10.7427 148.617 10.7792 148.653C10.6699 148.326 10.7063 148.034 10.5971 147.779C10.7063 147.67 10.8156 147.67 10.8884 147.634C10.7427 147.67 10.6699 146.068 10.7063 146.031Z"  />
<path d="M92.0234 35.3241C92.2419 35.2513 92.2419 35.1056 92.2784 34.9963C92.0963 35.1056 92.0234 35.1784 92.0234 35.3241Z"  />
<path d="M92.6465 28.6597H92.3187C92.3187 28.3684 92.6829 28.5504 92.6101 28.2955C92.1366 28.1863 92.6465 27.8221 92.3916 27.7129C92.428 27.7129 92.428 27.5672 92.5736 27.5672C92.3187 27.5308 92.5372 27.4215 92.4644 27.3487C92.3916 27.3123 92.3916 27.3851 92.3187 27.3851L92.2095 27.203C92.2823 27.1302 92.428 27.0938 92.4644 27.1666C92.5372 26.6568 92.6829 24.1076 92.5372 23.5249C92.3551 23.6342 92.5008 23.7798 92.2095 23.8891C92.0274 23.7434 92.2459 23.6342 92.0638 23.5978C92.5008 23.5249 92.1731 23.27 92.6101 23.1243L92.3551 23.0879L92.5008 23.0151C92.2459 22.3596 92.3916 22.8694 92.428 22.2868C92.3916 21.959 92.0274 21.8133 92.1366 21.6313C92.1366 21.6677 91.991 21.7405 91.9181 21.6677C92.1366 21.6313 91.7725 21.4492 91.991 21.3763C91.9546 21.3035 91.9546 21.0486 91.6632 21.1214C91.8089 21.085 91.8817 20.8301 91.991 20.9758C92.0274 20.9029 92.0638 20.8301 91.991 20.7573L91.9181 20.8665C91.8453 20.6116 92.1002 20.4295 91.8089 20.2838L91.6996 20.3567C91.6632 20.211 91.6268 20.0653 91.9181 19.9925L92.0274 20.1746C92.0274 19.8833 91.991 19.7376 91.8089 19.5191V19.5919C91.5176 19.3006 91.2262 17.8075 90.8256 17.5526L90.6071 17.6983L90.3886 17.4433C90.3886 17.4798 91.1534 17.5526 91.0806 17.589C91.0441 17.0792 90.7892 14.53 90.9349 14.0566C91.0441 13.8745 91.2991 14.0202 91.3355 14.0202C91.2262 13.8017 91.0806 13.9473 91.0806 13.7652C91.117 13.6924 91.2626 13.7652 91.2991 13.8017C91.2626 13.6924 91.3719 13.6196 91.2626 13.6196C91.1534 13.7288 90.8621 13.6924 90.68 13.7288L90.7164 13.5103H90.8985C90.8985 13.4375 90.3886 13.3647 90.4615 13.1097C90.5343 12.7092 90.4615 12.2722 90.4979 11.8716C90.6071 11.8716 90.68 11.9808 90.7528 12.0537C90.7528 11.9808 90.7164 11.908 90.7892 11.8716C90.6071 11.9808 90.6435 11.6895 90.5707 11.7623C90.1337 11.471 90.4979 11.1068 90.2065 10.8155C89.806 10.8155 83.3238 10.3057 82.8504 10.2692C82.8504 10.1964 82.8504 10.0872 82.8868 10.0872C82.7775 10.0872 82.7411 10.2692 82.7775 10.3421L83.0325 10.3785C83.1417 10.5606 82.8868 10.4149 82.9232 10.597C82.7047 10.6334 82.6683 10.4513 82.6319 10.2692C82.6319 10.4149 82.4862 10.5606 82.7047 10.6334C82.6319 10.7427 82.4498 10.597 82.377 10.7791C82.4134 10.8883 82.6319 11.034 82.5226 11.1797H82.4862C82.2677 11.5074 82.814 11.6531 82.5955 11.9808L82.5226 11.9444C82.4134 12.0537 82.5955 12.2357 82.4498 12.4178C82.5226 12.3814 82.6683 12.345 82.6683 12.4542C82.559 12.6727 82.7047 12.8184 82.559 12.9641L82.7411 13.1097C82.7411 13.8745 83.1053 16.8607 83.1781 17.6254L83.1417 17.589C83.2874 18.7543 83.3602 21.1214 83.6515 22.2868C83.4695 22.4688 83.5059 22.7238 83.4695 22.9423C83.5423 22.833 83.688 22.833 83.688 22.9423C83.688 23.4885 83.8336 22.9787 83.9429 23.5249C84.1614 24.1804 84.0157 26.7296 83.87 27.3487C84.1614 27.64 83.9429 28.0406 84.1614 28.3319H84.0885C84.1978 28.6597 83.9793 30.5534 84.125 30.9175L84.1614 30.8811C84.3435 31.2089 84.0157 31.1724 83.9429 31.4274C84.2706 31.3909 84.4527 31.6823 84.4891 31.7915H84.4163C84.4891 31.9372 84.7805 32.3378 84.8169 32.5927H84.6348C84.8533 32.8112 84.7805 33.2482 84.8169 33.3939C84.744 33.7945 84.4527 34.3771 84.7076 34.887L84.1978 35.2147L84.2342 35.2511C84.2342 35.2511 90.5343 35.7974 91.8453 35.1055H92.0274L91.991 34.9598C92.0638 34.8141 91.8817 34.7413 92.0638 34.7413L92.0274 34.9598C92.0638 34.8141 92.1731 34.9234 92.2823 34.9962C92.2823 34.9234 92.3187 34.8505 92.3551 34.7777C92.3187 34.7777 92.2823 34.8141 92.2459 34.8505C92.2095 34.7413 92.0274 34.632 92.1002 34.5228C92.1002 34.3771 92.3916 34.5228 92.3916 34.3043C92.5008 33.2846 92.6829 32.3014 92.6101 31.2453C92.6829 31.2089 92.6829 31.2453 92.7193 31.2817C92.6465 30.9539 92.6465 30.699 92.5736 30.4077C92.6465 30.3349 92.7557 30.2984 92.8286 30.262C92.6829 30.3349 92.6101 28.6961 92.6465 28.6597Z"  />
<path d="M67.5169 51.1291C67.699 51.0198 67.7354 50.9106 67.7354 50.7649C67.5533 50.8741 67.4805 50.9834 67.5169 51.1291Z"  />
<path d="M58.0859 25.9648C58.0859 26.0013 58.0859 26.0377 58.1224 26.0741C58.1224 26.0377 58.1224 26.0013 58.0859 25.9648Z"  />
<path d="M68.136 44.4647L67.8083 44.4282C67.7718 44.1369 68.1724 44.3554 68.0632 44.0641C67.5898 43.9548 68.0996 43.5907 67.8447 43.4814C67.8811 43.4814 67.9175 43.3357 68.0632 43.3722C67.8083 43.3357 67.9903 43.2265 67.9175 43.1172C67.8447 43.1172 67.8447 43.1537 67.7718 43.1901L67.6626 42.9716C67.7354 42.8987 67.9175 42.8623 67.9175 42.9716C67.9903 42.4253 68.1724 39.8762 68.0268 39.3299C67.8447 39.4027 67.9539 39.5848 67.6626 39.6577C67.4805 39.512 67.7354 39.4392 67.5533 39.3663C67.9903 39.2935 67.6262 39.0386 68.0996 38.8929L67.8447 38.8565L67.9903 38.7837C67.699 38.1282 67.8447 38.638 67.8811 38.0553C67.8447 37.7276 67.4805 37.5819 67.6262 37.3998C67.5898 37.4362 67.4441 37.5091 67.3713 37.4362C67.6262 37.3998 67.2256 37.2177 67.4441 37.1813C67.4077 37.0721 67.4441 36.8171 67.1163 36.9264C67.2984 36.8536 67.3348 36.6351 67.4805 36.7443C67.4805 36.6715 67.5169 36.5986 67.4441 36.5258L67.3713 36.6351C67.3348 36.3801 67.5533 36.2345 67.262 36.0524L67.1528 36.1616C67.1163 35.9796 67.1163 35.8703 67.4077 35.7975L67.4805 35.9431C67.4805 35.6882 67.4441 35.5061 67.2984 35.2876V35.3605C66.9707 35.1056 66.6793 33.5761 66.2788 33.3211L66.0603 33.4668L65.8782 33.2483C65.8782 33.2483 66.6065 33.3211 66.5337 33.3576C66.4973 32.8477 66.2423 30.2986 66.388 29.8616C66.4973 29.6795 66.7522 29.8251 66.7886 29.8251C66.6793 29.6066 66.5337 29.7159 66.5701 29.5338C66.6065 29.4974 66.7522 29.5338 66.7886 29.5702C66.7522 29.4974 66.825 29.4246 66.7158 29.3881C66.6429 29.4974 66.3516 29.461 66.1695 29.5338V29.2789H66.3516C66.3516 29.2425 65.8418 29.1332 65.951 28.9147C66.0238 28.5141 65.9146 28.0771 65.951 27.6401C66.0603 27.6765 66.1331 27.7494 66.2059 27.8222C66.2059 27.7858 66.1695 27.6765 66.2423 27.6401C66.0603 27.7494 66.1331 27.458 66.0238 27.5673C65.5868 27.2395 65.9874 26.8754 65.6597 26.6205C65.2591 26.584 58.7769 26.0742 58.3035 26.0378C58.3035 25.965 58.3035 25.8921 58.3399 25.8557C58.2307 25.8921 58.1942 26.0378 58.2671 26.147H58.522C58.5948 26.3291 58.3763 26.1835 58.3763 26.402C58.1942 26.402 58.1214 26.2199 58.1214 26.0742C58.085 26.2199 57.9393 26.3655 58.1578 26.402C58.085 26.5476 57.9029 26.402 57.8301 26.5476C57.9029 26.6569 58.1214 26.839 57.9757 26.9482H57.9393C57.7572 27.276 58.2671 27.458 58.085 27.7494L58.0122 27.713C57.9029 27.8222 58.0486 28.0407 57.9393 28.2228C57.9757 28.15 58.1214 28.1136 58.1578 28.2228C58.0122 28.4413 58.1578 28.587 58.0122 28.7326L58.2307 28.9147C58.1942 29.6431 58.5948 32.6292 58.6312 33.394L58.5948 33.3576C58.7405 34.5229 58.8133 36.89 59.1411 38.0553C58.9226 38.2738 58.9954 38.5287 58.9226 38.7108C59.0318 38.6016 59.1775 38.638 59.1411 38.7108C59.1411 39.2935 59.2867 38.7472 59.396 39.3299C59.6145 39.9854 59.4688 42.5346 59.3232 43.1172C59.6509 43.4086 59.4324 43.8092 59.6145 44.1369L59.5417 44.1005C59.6873 44.4282 59.4688 46.3219 59.5781 46.6861L59.6145 46.6497C59.7966 46.9774 59.4688 46.941 59.396 47.1959C59.7237 47.1595 59.9058 47.4508 59.9422 47.5601H59.8694C59.9422 47.7422 60.2336 48.1063 60.3064 48.3613H60.1243C60.3064 48.5798 60.2336 49.0168 60.27 49.1988C60.1972 49.563 59.9058 50.1457 60.1607 50.6555L59.6509 50.9833L59.7237 51.0197C59.7237 51.0197 65.9874 51.5659 67.2984 50.874H67.4805L67.4441 50.7648C67.5533 50.5827 67.3348 50.5098 67.5169 50.5098L67.4805 50.7648C67.5533 50.5827 67.6626 50.6919 67.7354 50.7648C67.7718 50.6919 67.7718 50.6191 67.8447 50.5827C67.7718 50.5463 67.7718 50.5827 67.7354 50.6191C67.6626 50.5463 67.4805 50.4006 67.5533 50.2913C67.5898 50.1457 67.8447 50.2913 67.8811 50.1093C67.9903 49.0532 68.1724 48.0699 68.0996 47.0138C68.1724 47.0138 68.1724 47.0503 68.2088 47.0503C68.0996 46.7589 68.136 46.4676 68.0268 46.1762C68.0996 46.1034 68.2088 46.067 68.2817 46.067C68.136 46.1034 68.0632 44.4647 68.136 44.4647Z"  />
<path d="M76.9114 182.229C77.0935 182.157 77.1299 182.011 77.1299 181.865C76.9479 181.974 76.875 182.084 76.9114 182.229Z"  />
<path d="M67.4805 157.065C67.4805 157.101 67.4805 157.138 67.5169 157.174C67.5169 157.138 67.5169 157.101 67.4805 157.065Z"  />
<path d="M77.5325 175.565H77.2047C77.1683 175.237 77.5689 175.456 77.4597 175.164C77.0227 175.055 77.4961 174.691 77.2412 174.618C77.2776 174.618 77.314 174.473 77.4597 174.473C77.2047 174.436 77.3868 174.327 77.314 174.254C77.2412 174.218 77.2412 174.254 77.1683 174.29L77.0591 174.108C77.1683 173.999 77.314 173.999 77.314 174.072C77.3868 173.526 77.5689 171.013 77.4232 170.43C77.2412 170.503 77.3504 170.685 77.0591 170.758C76.877 170.612 77.1319 170.539 76.9498 170.467C77.3868 170.394 77.0227 170.139 77.4961 170.03L77.2412 169.993L77.3868 169.884C77.0955 169.265 77.2412 169.738 77.2776 169.156C77.2412 168.864 76.877 168.719 77.0227 168.537C77.0227 168.537 76.8406 168.609 76.7677 168.537C77.0227 168.537 76.6221 168.318 76.8406 168.282C76.8042 168.209 76.8406 167.917 76.5492 168.027C76.6949 167.954 76.7313 167.735 76.877 167.881C76.877 167.772 76.9134 167.699 76.8406 167.663L76.7677 167.772C76.7313 167.48 76.9498 167.335 76.6585 167.153L76.5492 167.262C76.5128 167.116 76.5128 166.971 76.8042 166.898L76.877 167.043C76.877 166.789 76.8406 166.606 76.6949 166.388V166.497C76.3672 166.206 76.0758 164.713 75.6752 164.458L75.4567 164.567L75.2747 164.349C75.2747 164.385 76.003 164.421 75.9302 164.458C75.8937 163.984 75.6388 161.399 75.7845 160.962C75.8937 160.78 76.1487 160.925 76.1851 160.925C76.1122 160.707 75.9302 160.816 75.9666 160.634C76.003 160.598 76.1487 160.634 76.1851 160.671C76.1487 160.598 76.2215 160.525 76.1122 160.525C76.0394 160.634 75.7481 160.561 75.566 160.634V160.379H75.7481C75.7481 160.343 75.2382 160.27 75.3475 160.015C75.4203 159.614 75.3111 159.177 75.3475 158.777C75.4567 158.777 75.5296 158.85 75.6024 158.959C75.6024 158.886 75.566 158.813 75.6388 158.74C75.4567 158.85 75.5296 158.595 75.4567 158.668C74.9833 158.376 75.3839 157.976 75.0562 157.721C74.6556 157.684 68.1734 157.211 67.7 157.175C67.7 157.065 67.7 156.992 67.7364 156.956C67.6271 156.992 67.5907 157.138 67.6636 157.247H67.9185C67.9913 157.466 67.7728 157.284 67.7728 157.502C67.5907 157.502 67.5179 157.32 67.5179 157.175C67.4815 157.32 67.3358 157.466 67.5543 157.502C67.4815 157.648 67.2994 157.502 67.2266 157.648C67.2994 157.794 67.5179 157.939 67.3722 158.049H67.3358C67.1537 158.376 67.6636 158.558 67.4815 158.85L67.4086 158.813C67.2994 158.923 67.4451 159.141 67.3358 159.323C67.3722 159.287 67.5179 159.214 67.5543 159.323C67.4086 159.542 67.5543 159.687 67.4086 159.869L67.6271 160.015C67.5907 160.78 67.9913 163.73 68.0277 164.494L67.9913 164.458C68.137 165.623 68.2098 167.99 68.5376 169.192C68.3191 169.374 68.3919 169.629 68.3555 169.811C68.4283 169.702 68.574 169.738 68.574 169.811C68.5376 170.394 68.6832 169.848 68.7925 170.43C69.011 171.086 68.8653 173.635 68.7196 174.218C69.0474 174.545 68.8289 174.946 69.011 175.237L68.9381 175.201C69.0838 175.529 68.8653 177.422 68.9746 177.823L69.011 177.75C69.1931 178.078 68.9017 178.041 68.7925 178.333C69.1202 178.26 69.3023 178.551 69.3387 178.66H69.2659C69.3387 178.843 69.6301 179.207 69.7029 179.498L69.5208 179.462C69.7029 179.717 69.6301 180.154 69.6665 180.299C69.5936 180.663 69.3023 181.246 69.5572 181.756L69.0474 182.084L69.1202 182.12C69.1202 182.12 75.3839 182.666 76.6949 181.974L76.877 182.011V181.865C76.9498 181.719 76.7313 181.61 76.9134 181.647V181.865C76.9498 181.683 77.0591 181.792 77.1319 181.865C77.1683 181.792 77.1683 181.719 77.2412 181.683C77.1683 181.647 77.1683 181.719 77.1319 181.719C77.0591 181.647 76.877 181.537 76.9498 181.428C76.9862 181.246 77.2412 181.392 77.2776 181.21C77.3868 180.19 77.5689 179.17 77.4961 178.151C77.5689 178.114 77.5689 178.151 77.6053 178.187C77.4961 177.859 77.5325 177.568 77.4232 177.277C77.4961 177.204 77.6053 177.204 77.6782 177.167C77.5325 177.204 77.4961 175.601 77.5325 175.565Z"  />
<path d="M67.1165 108.121C67.2986 108.012 67.2986 107.866 67.335 107.72C67.1529 107.83 67.0801 107.939 67.1165 108.121Z"  />
<path d="M67.6973 100.401H67.3695C67.3331 100.037 67.7337 100.292 67.6244 99.9638C67.1874 99.8546 67.6608 99.4176 67.4059 99.3083C67.4788 99.3083 67.4788 99.1627 67.6244 99.1627C67.3695 99.0898 67.5516 98.9806 67.4788 98.8713C67.4059 98.8349 67.4059 98.9077 67.3331 98.9442L67.2238 98.7257C67.3331 98.6164 67.4788 98.58 67.4788 98.6892C67.5516 98.0702 67.7337 95.1568 67.588 94.5013C67.3695 94.5741 67.5152 94.7926 67.2238 94.8655C67.0418 94.6834 67.2603 94.6106 67.0782 94.5377C67.5516 94.4649 67.1874 94.1736 67.6244 94.0279L67.3695 93.9915L67.5516 93.8822C67.2603 93.1539 67.4059 93.7366 67.4423 93.0446C67.4059 92.6805 67.0418 92.4984 67.1874 92.2799C67.151 92.3163 67.0053 92.4256 66.9325 92.3163C67.1874 92.2799 66.7868 92.0614 67.0053 91.9886C66.9689 91.9157 67.0053 91.588 66.714 91.6972C66.8597 91.6244 66.8961 91.3695 67.0418 91.5151C67.0418 91.4423 67.0782 91.3331 67.0053 91.2602L66.9325 91.4059C66.8961 91.0781 67.1146 90.8961 66.8232 90.6776L66.714 90.8232C66.6776 90.6047 66.6776 90.4591 66.9689 90.3862L67.0782 90.5683C67.0418 90.2406 67.0053 90.0585 66.8597 89.8036V89.9128C66.5319 89.5851 66.2406 87.8006 65.8764 87.5093L65.6215 87.655L65.4394 87.4001C65.4394 87.4365 66.2042 87.5093 66.1313 87.5457C66.0949 86.9631 65.84 83.9769 65.9492 83.4306C66.0949 83.2121 66.3498 83.3942 66.3862 83.3942C66.277 83.1393 66.1313 83.285 66.1313 83.0665C66.1677 83.03 66.3134 83.1029 66.3498 83.1029C66.3134 83.03 66.3862 82.9208 66.277 82.9208C66.2042 83.03 65.9128 82.9936 65.7307 83.0665L65.7672 82.7751H65.9492C65.9492 82.7023 65.4394 82.6295 65.5122 82.3381C65.5851 81.8647 65.5122 81.3549 65.5487 80.8815C65.6579 80.8815 65.7307 80.9907 65.8036 81.1C65.8036 81.0271 65.7672 80.9179 65.84 80.8815C65.6579 80.9907 65.6943 80.663 65.6215 80.7722C65.1845 80.408 65.5487 79.971 65.2573 79.6433C64.8567 79.6433 58.3746 78.9878 57.9012 78.9878C57.9012 78.915 57.9012 78.8057 57.9376 78.7693C57.8283 78.8057 57.7919 78.9878 57.8647 79.097H58.1197C58.1925 79.352 57.9376 79.1699 57.974 79.3884C57.7555 79.4248 57.7191 79.2063 57.6827 79.0242C57.6827 79.1699 57.537 79.352 57.7555 79.4248C57.6827 79.5705 57.5006 79.3884 57.4277 79.5705C57.4642 79.7161 57.6827 79.8982 57.5734 80.0439H57.537C57.3185 80.408 57.8647 80.6265 57.6462 80.9543L57.5734 80.9179C57.4642 81.0271 57.6462 81.282 57.5006 81.5005C57.5734 81.4277 57.7191 81.3913 57.7191 81.5005C57.6098 81.7555 57.7555 81.9375 57.5734 82.1196L57.7919 82.3017C57.7919 83.1757 58.1561 86.5989 58.2289 87.4729L58.1925 87.4365C58.3017 88.7839 58.3746 91.5151 58.7023 92.899C58.4838 93.1175 58.5567 93.4088 58.4838 93.6273C58.5931 93.4816 58.7023 93.5181 58.7023 93.6273C58.7023 94.3192 58.848 93.6637 58.9572 94.3556C59.1757 95.1204 59.0301 98.1066 58.8844 98.7985C59.2122 99.1627 58.9937 99.5997 59.1757 99.9638L59.1029 99.9274C59.2486 100.328 59.0301 102.513 59.1393 102.986L59.1757 102.914C59.3942 103.314 59.0665 103.241 58.9572 103.569C59.285 103.496 59.5035 103.86 59.5399 103.97H59.4671C59.5035 104.152 59.8312 104.589 59.8677 104.917H59.6856C59.9041 105.171 59.8312 105.681 59.8677 105.863C59.7948 106.3 59.5035 106.992 59.7584 107.575L59.2486 107.939L59.285 108.012C59.285 108.012 65.5851 108.631 66.8961 107.83L67.0782 107.866L67.0418 107.684C67.1146 107.502 66.9325 107.429 67.1146 107.429L67.0782 107.684C67.1146 107.502 67.2238 107.648 67.3331 107.721C67.3695 107.611 67.3695 107.539 67.4423 107.502C67.3695 107.466 67.3331 107.502 67.2967 107.539C67.2603 107.429 67.0782 107.284 67.151 107.174C67.151 106.992 67.4423 107.174 67.4423 106.956C67.5516 105.754 67.7337 104.589 67.6608 103.387C67.7337 103.351 67.7337 103.387 67.7701 103.423C67.6973 103.059 67.6973 102.731 67.6244 102.404C67.6973 102.331 67.8065 102.294 67.8793 102.258C67.7337 102.331 67.6608 100.437 67.6973 100.401Z"  />
<path d="M9.68489 62.4914C9.86697 62.3822 9.90339 62.2365 9.90339 62.0908C9.7213 62.2001 9.64847 62.3093 9.68489 62.4914Z"  />
<path d="M0.253906 33.2485C0.253906 33.285 0.253906 33.3214 0.290323 33.3942C0.290323 33.3578 0.290323 33.285 0.253906 33.2485Z"  />
<path d="M10.2695 54.7707H9.94177C9.94177 54.4065 10.3059 54.6614 10.2331 54.3337C9.75968 54.2244 10.2695 53.7874 10.0146 53.6782C10.051 53.6782 10.051 53.4961 10.1967 53.5325C9.94177 53.4597 10.1239 53.3504 10.051 53.2412C9.97818 53.2048 9.97818 53.2776 9.90535 53.314L9.83252 53.0955C9.90535 52.9863 10.051 52.9499 10.0874 53.0591C10.1603 52.44 10.3059 49.4903 10.1603 48.8712C9.97818 48.944 10.0874 49.1625 9.7961 49.2354C9.65043 49.0533 9.86893 48.9804 9.68685 48.9076C10.1239 48.8348 9.75968 48.5434 10.2331 48.3978L9.97818 48.3249L10.1239 48.2521C9.83252 47.5238 9.97818 48.1064 10.0146 47.4145C9.97818 47.0504 9.61402 46.8683 9.75968 46.6498C9.75968 46.6862 9.61402 46.759 9.54118 46.6862C9.75968 46.6498 9.3591 46.4313 9.5776 46.3584C9.5776 46.2856 9.5776 45.9578 9.28627 46.0671C9.43193 45.9943 9.46835 45.7393 9.61402 45.885C9.61402 45.8122 9.68685 45.7029 9.61402 45.6301L9.50477 45.7758C9.46835 45.448 9.68685 45.2659 9.43193 45.0474L9.28627 45.1931C9.28627 44.9746 9.24985 44.8289 9.54118 44.7561L9.65043 44.9382C9.61402 44.6104 9.61402 44.4283 9.43193 44.1734V44.2827C9.1406 43.9549 8.81285 42.1705 8.44868 41.8792L8.23018 42.0248L8.01168 41.7699C8.01168 41.8063 8.77643 41.8792 8.7036 41.9156C8.66718 41.3329 8.41226 38.3468 8.55793 37.8005C8.66718 37.582 8.9221 37.7641 8.95852 37.7641C8.84927 37.5092 8.7036 37.6548 8.7036 37.4363C8.77643 37.3999 8.88568 37.4363 8.9221 37.4728C8.9221 37.3999 8.99493 37.2907 8.88568 37.2907C8.77643 37.3999 8.52151 37.3635 8.30301 37.4363L8.33943 37.145H8.52151C8.52151 37.0722 8.01168 36.9993 8.12093 36.708C8.15735 36.2346 8.08451 35.7247 8.12093 35.2513C8.23018 35.2513 8.30301 35.3606 8.37585 35.4698C8.37585 35.397 8.33943 35.2877 8.41226 35.2513C8.23018 35.3606 8.30301 35.0328 8.19376 35.1421C7.75676 34.7779 8.15735 34.3409 7.8296 34.0132C7.42901 34.0132 0.946835 33.3577 0.473417 33.3577C0.473417 33.2848 0.473417 33.1756 0.509834 33.1392C0.400584 33.1756 0.364167 33.3577 0.437001 33.4669H0.691918C0.764751 33.7218 0.546251 33.5397 0.546251 33.7582C0.364167 33.7947 0.291334 33.5762 0.291334 33.3941C0.254917 33.5397 0.10925 33.7218 0.327751 33.7947C0.254917 33.9403 0.0728335 33.7582 0 33.9403C0.0728335 34.086 0.291334 34.2681 0.145667 34.4137H0.10925C-0.0728335 34.7779 0.437001 34.9964 0.254917 35.3242L0.182084 35.2877C0.0728335 35.397 0.2185 35.6519 0.10925 35.8704C0.145667 35.7976 0.291334 35.7612 0.327751 35.8704C0.182084 36.1253 0.327751 36.3074 0.182084 36.4895L0.364167 36.6716C0.364167 37.5456 0.728335 40.9688 0.801168 41.8428L0.764751 41.8063C0.910418 43.1538 0.946835 45.885 1.27459 47.2689C1.05609 47.4874 1.12892 47.7787 1.0925 47.9972C1.16534 47.8515 1.311 47.8879 1.311 47.9972C1.27459 48.6891 1.42025 48.0336 1.5295 48.7255C1.748 49.4903 1.63875 52.4764 1.49309 53.1684C1.78442 53.4961 1.56592 53.9695 1.78442 54.3337L1.71159 54.2973C1.82084 54.6979 1.60234 56.8829 1.748 57.3199L1.78442 57.2835C1.9665 57.684 1.63875 57.6112 1.56592 57.939C1.89367 57.8661 2.07575 58.2303 2.11217 58.3395H2.03934C2.11217 58.5216 2.4035 58.9586 2.47634 59.2864H2.29425C2.47634 59.5413 2.4035 60.0511 2.43992 60.2332C2.36709 60.6702 2.07575 61.3621 2.33067 61.9448L1.82084 62.309L1.89367 62.3818C1.89367 62.3818 8.15735 63.0009 9.46835 62.1997L9.65043 62.2361L9.61402 62.054C9.72327 61.872 9.50477 61.7991 9.68685 61.7991V62.054C9.72327 61.872 9.83252 62.0176 9.90535 62.0905C9.94177 61.9812 9.94177 61.9084 10.0146 61.872C9.94177 61.8355 9.94177 61.872 9.90535 61.9084C9.83252 61.7991 9.65043 61.6535 9.72327 61.5442C9.75968 61.3621 10.0146 61.5442 10.051 61.2893C10.1603 60.124 10.3059 58.9586 10.2331 57.7569C10.3059 57.7205 10.3059 57.7569 10.3424 57.7933C10.2695 57.4291 10.2695 57.1014 10.1967 56.7736C10.2695 56.7008 10.3788 56.6644 10.4516 56.628C10.3059 56.7008 10.2331 54.8071 10.2695 54.7707Z"  />
<path d="M142.646 58.5578C142.828 58.485 142.864 58.3029 142.901 58.1572C142.682 58.2665 142.609 58.4121 142.646 58.5578Z"  />
<path d="M133.213 29.3518C133.213 29.3882 133.249 29.4246 133.249 29.4611C133.249 29.4246 133.249 29.3882 133.213 29.3518Z"  />
<path d="M143.227 50.8742L142.899 50.8378C142.899 50.51 143.263 50.7285 143.19 50.4008C142.717 50.2915 143.227 49.8545 142.972 49.7453C143.008 49.7453 143.008 49.5996 143.154 49.5996C142.899 49.5632 143.081 49.454 143.044 49.3447C142.972 49.3083 142.972 49.3811 142.862 49.3811L142.79 49.1626C142.862 49.0534 143.008 49.0534 143.044 49.1262C143.117 48.5435 143.263 45.5938 143.117 44.9383C142.935 45.0111 143.081 45.2296 142.753 45.3025C142.607 45.1568 142.826 45.0475 142.644 44.9747C143.081 44.9019 142.753 44.6105 143.19 44.4649L142.935 44.4285L143.081 44.3192C142.79 43.5909 142.935 44.1735 143.008 43.518C142.935 43.1175 142.607 42.9718 142.717 42.7533C142.717 42.7533 142.571 42.8625 142.498 42.7533C142.717 42.7533 142.316 42.4984 142.535 42.4619C142.535 42.3527 142.535 42.0249 142.243 42.1342C142.389 42.0978 142.462 41.8064 142.571 41.9885C142.571 41.8793 142.644 41.77 142.571 41.7336L142.498 41.8429C142.425 41.5151 142.644 41.333 142.389 41.1509L142.28 41.2602C142.243 41.0781 142.207 40.896 142.498 40.8232L142.607 41.0053C142.607 40.7139 142.571 40.5319 142.389 40.2405V40.3498C142.098 40.022 141.806 38.274 141.406 37.9463L141.187 38.0919L140.969 37.837C140.969 37.8734 141.733 37.9463 141.661 37.9827C141.624 37.4 141.369 34.4139 141.515 33.904C141.624 33.6855 141.879 33.8676 141.916 33.8676C141.806 33.6127 141.661 33.7584 141.697 33.5399C141.733 33.467 141.879 33.5399 141.916 33.5763C141.879 33.467 141.952 33.3942 141.843 33.3578C141.77 33.5034 141.479 33.467 141.296 33.5034V33.2121H141.479C141.479 33.1757 140.969 33.0664 141.078 32.7751C141.151 32.3017 141.042 31.7918 141.078 31.3184C141.187 31.3548 141.26 31.4277 141.333 31.5369C141.333 31.4641 141.296 31.3913 141.369 31.3184C141.187 31.4277 141.26 31.1363 141.187 31.2092C140.714 30.8814 141.114 30.408 140.787 30.1167C140.386 30.0803 133.904 29.4612 133.43 29.4612C133.43 29.3519 133.467 29.2427 133.503 29.2427C133.358 29.2427 133.321 29.4612 133.394 29.534L133.649 29.5704C133.758 29.7889 133.503 29.6068 133.54 29.8618C133.321 29.8618 133.248 29.6433 133.248 29.4612C133.212 29.6433 133.066 29.7889 133.285 29.8618C133.212 30.0074 133.03 29.8618 132.957 30.0438C133.03 30.1531 133.248 30.3352 133.103 30.4808H133.066C132.884 30.8814 133.394 31.0635 133.212 31.3913H133.139C133.03 31.5005 133.176 31.719 133.066 31.9375C133.103 31.9011 133.248 31.8283 133.285 31.9739C133.139 32.2288 133.285 32.3745 133.139 32.5566L133.358 32.7387C133.321 33.6127 133.685 37.0723 133.758 37.9463L133.722 37.9099C133.867 39.2209 133.904 41.9521 134.232 43.336C134.05 43.5545 134.086 43.8458 134.05 44.0643C134.122 43.955 134.268 43.9915 134.268 44.0643C134.268 44.7562 134.414 44.1371 134.487 44.7926C134.705 45.5938 134.596 48.5435 134.45 49.2355C134.741 49.5996 134.523 50.073 134.741 50.4008L134.669 50.3644C134.778 50.765 134.596 52.9864 134.705 53.4234L134.741 53.3506C134.924 53.7511 134.596 53.7147 134.523 54.0061C134.851 53.9696 135.033 54.2974 135.069 54.4431L134.996 54.4066C135.069 54.6251 135.361 55.0621 135.433 55.3899L135.251 55.3535C135.433 55.6448 135.361 56.1182 135.397 56.3367C135.324 56.7737 135.033 57.4292 135.288 58.0119L134.778 58.4125L134.851 58.4489C134.851 58.4489 141.114 59.068 142.425 58.3032H142.607V58.1576C142.68 57.9755 142.462 57.8662 142.644 57.8662V58.1576C142.68 57.9391 142.79 58.0847 142.899 58.1576C142.899 58.0847 142.935 58.0119 142.972 57.9391C142.899 57.9026 142.899 57.9755 142.862 57.9755C142.79 57.9026 142.607 57.757 142.68 57.6113C142.717 57.4292 143.008 57.6113 143.008 57.3928C143.117 56.1911 143.299 55.0621 143.19 53.8604C143.263 53.824 143.263 53.8604 143.299 53.8968C143.227 53.5326 143.227 53.2049 143.154 52.8771C143.227 52.7679 143.336 52.7315 143.409 52.7315C143.263 52.7679 143.19 50.9106 143.227 50.8742Z"  />
<path d="M40.931 78.6964C41.1131 78.6236 41.1495 78.4779 41.1495 78.3323C40.9674 78.4415 40.8946 78.5508 40.931 78.6964Z"  />
<path d="M41.4783 72.1783L41.1506 72.1419C41.1142 71.8505 41.5147 72.069 41.4055 71.7777C40.9685 71.7049 41.4419 71.3043 41.187 71.2314C41.2234 71.2314 41.2598 71.0858 41.4055 71.0858C41.1506 71.0494 41.3327 70.9401 41.2598 70.8673C41.187 70.8309 41.187 70.9037 41.1142 70.9401L41.0049 70.7216C41.0777 70.6488 41.2234 70.6124 41.2598 70.7216C41.3327 70.1754 41.4783 67.699 41.2962 67.1163C41.1142 67.2256 41.2598 67.3713 40.9685 67.4805C40.7864 67.3348 41.0049 67.262 40.8228 67.1892C41.2598 67.1163 40.9321 66.8614 41.3691 66.7158H41.1142L41.2598 66.6065C40.9321 65.9874 41.1142 66.4973 41.1142 65.9146C41.0777 65.5868 40.7136 65.4776 40.8228 65.2591C40.8228 65.2955 40.6772 65.3683 40.6043 65.2955C40.8228 65.2591 40.4222 65.077 40.6407 65.0406C40.6043 64.9678 40.6043 64.6764 40.313 64.7857C40.4587 64.7493 40.4951 64.4943 40.6407 64.64C40.6407 64.5308 40.6772 64.4579 40.6043 64.4215L40.5315 64.5308C40.4587 64.2394 40.6772 64.0938 40.3858 63.9481L40.2766 64.0573C40.2766 63.8753 40.2402 63.7296 40.5315 63.6568L40.6043 63.8024C40.6043 63.5475 40.5679 63.4018 40.3858 63.1833V63.2562C40.0581 63.0013 39.6939 61.5082 39.2933 61.2897L39.0748 61.4353L38.8563 61.2168C38.8563 61.2533 39.6211 61.2533 39.5482 61.2897C39.4754 60.8163 39.0748 58.3035 39.1841 57.8301C39.2933 57.648 39.5482 57.7937 39.5847 57.7572C39.4754 57.5752 39.3297 57.6844 39.3297 57.5023C39.3662 57.4659 39.5118 57.5023 39.5482 57.5387C39.5118 57.4659 39.5847 57.3567 39.4754 57.3567C39.4026 57.4659 39.1112 57.4659 38.9292 57.5387V57.2838H39.1112C39.1112 57.211 38.6014 57.1746 38.7107 56.9561C38.7471 56.5191 38.6378 56.1185 38.6378 55.7179C38.7471 55.7179 38.8199 55.7907 38.8927 55.8636C38.8927 55.7907 38.8563 55.7179 38.9292 55.6815C38.7471 55.7907 38.7835 55.4994 38.7107 55.6087C38.2372 55.3537 38.6378 54.9167 38.3101 54.6982C37.9095 54.6982 31.4273 54.8075 30.9539 54.8803C30.9539 54.7711 30.9539 54.6982 30.9903 54.6982C30.8811 54.6982 30.8446 54.8803 30.9175 54.9532H31.1724C31.2452 55.1352 31.0267 54.9896 31.0267 55.1717C30.8446 55.2081 30.7718 55.0624 30.7354 54.8803C30.7354 55.026 30.5897 55.1717 30.8082 55.2081C30.7354 55.3537 30.5533 55.2445 30.4805 55.3902C30.5533 55.4994 30.7718 55.6087 30.6626 55.7543H30.6261C30.4441 56.0821 30.9903 56.1913 30.8082 56.4827H30.7354C30.6261 56.5919 30.8082 56.774 30.6626 56.9561C30.7354 56.8832 30.8811 56.8468 30.8811 56.9197C30.7718 57.1382 30.9175 57.2838 30.7718 57.4295L30.9903 57.5752C31.0267 58.2671 31.5366 61.0712 31.6458 61.7631H31.6094C31.7915 62.8192 31.9736 65.077 32.3741 66.1695C32.1921 66.3516 32.2649 66.6065 32.1921 66.7886C32.3013 66.6793 32.447 66.7158 32.4106 66.7886C32.447 67.3348 32.5562 66.825 32.7019 67.3713C32.9204 67.9903 32.8111 70.4303 32.6655 71.0129C32.9932 71.3043 32.7747 71.7049 32.9568 71.9962L32.884 71.9598C33.0296 72.2511 32.8111 74.0719 32.9568 74.4725L32.9932 74.3997C33.1753 74.7274 32.8476 74.691 32.7747 74.9459C33.1025 74.9095 33.321 75.1644 33.321 75.2737H33.2481C33.321 75.4558 33.6487 75.7835 33.6851 76.0384H33.5031C33.7216 76.2569 33.6487 76.6939 33.6851 76.8396C33.6123 77.2038 33.321 77.75 33.5759 78.2599L33.0661 78.5512L33.1389 78.624C33.1389 78.624 39.4026 79.1339 40.7136 78.442L40.8957 78.4784L40.8592 78.3327C40.9685 78.187 40.75 78.1142 40.9321 78.1142L40.8957 78.3327C40.9685 78.187 41.0777 78.2963 41.1506 78.3327C41.187 78.2599 41.187 78.2235 41.2598 78.1506C41.187 78.1142 41.187 78.187 41.1506 78.2235C41.0777 78.1142 40.8957 78.005 40.9685 77.8957C40.9685 77.75 41.2598 77.8957 41.2962 77.6772C41.3691 76.6939 41.5512 75.7107 41.4783 74.691C41.5512 74.6546 41.5512 74.691 41.5876 74.7274C41.4783 74.3997 41.4783 74.1448 41.4055 73.8534C41.4783 73.7806 41.5876 73.7442 41.6604 73.7442C41.5147 73.7806 41.4419 72.1783 41.4783 72.1783Z"  />
<path d="M92.8644 94.2104C93.0465 94.1012 93.0829 93.9191 93.1193 93.7734C92.9008 93.8827 92.828 94.0284 92.8644 94.2104Z"  />
<path d="M93.4442 85.9435L93.1165 85.9071C93.0801 85.5429 93.4807 85.7978 93.3714 85.4337C92.898 85.3244 93.3714 84.851 93.1529 84.7417C93.1893 84.7417 93.1893 84.5961 93.335 84.5961C93.0801 84.5597 93.2622 84.414 93.1893 84.3047C93.1165 84.2683 93.1165 84.3412 93.0437 84.3776L92.9344 84.1227C93.0072 84.0134 93.1529 84.0134 93.1893 84.0862C93.2257 83.4672 93.2986 80.2989 93.1529 79.607C92.9708 79.7162 93.0801 79.9347 92.7887 80.044C92.6067 79.8619 92.8252 79.7526 92.6795 79.6798C93.1165 79.607 92.7523 79.2792 93.1893 79.0971L92.9344 79.0607L93.0801 78.9515C92.7159 78.1867 92.9344 78.8058 92.9344 78.0775C92.8252 77.6405 92.461 77.4948 92.5702 77.2399C92.5702 77.2763 92.4246 77.3856 92.3517 77.2763C92.5702 77.2399 92.1697 77.0214 92.3882 76.9486C92.3517 76.8393 92.3517 76.4751 92.0604 76.6208C92.2061 76.548 92.2425 76.2566 92.3882 76.4023C92.3882 76.3295 92.4246 76.2202 92.3517 76.1474L92.2789 76.2931C92.2061 75.9289 92.4246 75.7104 92.1332 75.5283L92.024 75.674C91.9876 75.4555 91.9512 75.2734 92.2425 75.1641L92.3517 75.3826C92.3153 75.0549 92.2789 74.8364 92.0968 74.5451V74.6543C91.7691 74.3266 91.3321 72.4329 90.9315 72.1416L90.713 72.3236L90.4945 72.0687C90.4945 72.0687 91.2592 72.1051 91.1864 72.1416C91.15 71.5225 90.5309 68.3178 90.6037 67.7351C90.713 67.4802 90.9679 67.6259 91.0043 67.6259C90.8951 67.371 90.7494 67.553 90.713 67.2981C90.7494 67.2253 90.8951 67.2981 90.9679 67.3345C90.8951 67.2253 90.9679 67.116 90.8587 67.116C90.7858 67.2617 90.4945 67.2253 90.3124 67.3345V67.0068H90.4945C90.4945 66.934 89.9847 66.8975 90.0211 66.5698C90.0575 66.06 89.9118 65.5137 89.8754 65.0039C89.9847 65.0039 90.0575 65.0767 90.1303 65.186C90.1303 65.1131 90.0939 65.0039 90.1667 64.931C89.9847 65.0767 90.0211 64.749 89.9482 64.8582C89.4384 64.5305 89.8026 63.9842 89.4384 63.6929C89.0378 63.7293 82.5556 64.0935 82.1186 64.2027C82.0822 64.0935 82.0822 63.9842 82.1186 63.9478C82.0094 64.0206 82.0094 64.2027 82.0822 64.312L82.3371 64.2755C82.4464 64.494 82.1915 64.3484 82.2279 64.5669C82.0094 64.6397 81.9366 64.4212 81.9001 64.2391C81.9001 64.4212 81.7909 64.6033 82.0094 64.6397C81.9366 64.8218 81.7545 64.6397 81.6816 64.8582C81.7909 64.9675 82.0094 65.1131 81.9001 65.2952H81.8637C81.6816 65.7322 82.2643 65.8415 82.0822 66.2056L82.0094 66.1692C81.9001 66.3149 82.1186 66.5334 82.0094 66.7883C82.0458 66.7155 82.1915 66.6426 82.2279 66.7519C82.1186 67.0432 82.2643 67.1889 82.1551 67.371L82.3736 67.5166C82.41 68.427 83.2476 71.8138 83.3204 72.7606L83.284 72.7242C83.5025 74.0716 83.721 76.8757 84.158 78.2596C83.9759 78.5145 84.0487 78.8058 84.0123 79.0243C84.0851 78.9151 84.2308 78.9515 84.2308 79.0243C84.2672 79.7162 84.3765 79.0607 84.5221 79.7526C84.7771 80.5538 84.7042 83.6857 84.595 84.4504C84.9227 84.8146 84.7042 85.288 84.9227 85.6886L84.8499 85.6522C84.9956 86.0527 84.8499 88.3834 84.9591 88.8204L84.9956 88.7476C85.1776 89.1846 84.8499 89.1117 84.7771 89.4395C85.1048 89.4031 85.2869 89.7308 85.3233 89.8765H85.2505C85.2869 90.0586 85.6146 90.532 85.6511 90.8598H85.469C85.6875 91.1147 85.6146 91.6609 85.6146 91.843C85.5782 92.3164 85.2505 93.0448 85.5054 93.6274L84.9956 94.028L85.0684 94.1008C85.0684 94.1008 91.3321 94.7563 92.6431 93.9188H92.8252V93.7367C92.898 93.5546 92.6795 93.4453 92.8616 93.4818V93.7367C92.898 93.5546 93.0072 93.7003 93.1165 93.7731C93.1165 93.6638 93.1529 93.591 93.1893 93.5182C93.1165 93.4818 93.1165 93.5546 93.0801 93.591C93.0072 93.4818 92.8252 93.3361 92.898 93.1904C92.9344 93.0083 93.2257 93.1904 93.2257 92.9355C93.335 91.6609 93.5171 90.4228 93.4442 89.1117C93.5171 89.0753 93.5171 89.1117 93.5535 89.1482C93.4807 88.784 93.4807 88.4198 93.4078 88.0557C93.4807 87.9828 93.5899 87.9464 93.6627 87.91C93.5171 87.9464 93.4078 85.9799 93.4442 85.9435Z"  />
<path d="M101.746 179.753C101.965 179.644 101.965 179.498 102.001 179.316C101.819 179.462 101.746 179.571 101.746 179.753Z"  />
<path d="M90.7871 149.673C90.7871 149.709 90.7871 149.745 90.8235 149.782C90.8235 149.745 90.8235 149.709 90.7871 149.673Z"  />
<path d="M102.332 171.486H102.004C101.967 171.086 102.368 171.341 102.295 171.013C101.822 170.904 102.295 170.43 102.04 170.321C102.077 170.321 102.077 170.139 102.222 170.139C101.967 170.102 102.15 169.957 102.077 169.847C102.004 169.811 102.004 169.884 101.931 169.92L101.822 169.665C101.931 169.593 102.077 169.556 102.077 169.665C102.15 169.01 102.222 165.878 102.04 165.186C101.858 165.295 102.004 165.477 101.713 165.587C101.53 165.405 101.749 165.295 101.567 165.259C102.004 165.15 101.64 164.822 102.077 164.64H101.822L101.967 164.531C101.64 163.729 101.822 164.348 101.822 163.62C101.749 163.22 101.385 163.037 101.494 162.783C101.494 162.819 101.348 162.928 101.276 162.819C101.494 162.783 101.093 162.564 101.312 162.491C101.276 162.382 101.276 162.018 100.984 162.163C101.13 162.091 101.166 161.799 101.312 161.981C101.312 161.872 101.348 161.763 101.276 161.69L101.203 161.836C101.13 161.472 101.348 161.289 101.021 161.071L100.911 161.217C100.875 160.998 100.839 160.852 101.13 160.743L101.239 160.925C101.203 160.598 101.166 160.379 100.984 160.124V160.197C100.656 159.869 100.256 157.976 99.8553 157.684L99.6368 157.866L99.4183 157.611C99.4183 157.648 100.183 157.648 100.11 157.684C100.074 157.102 99.4547 153.86 99.5276 153.278C99.6004 153.023 99.8553 153.169 99.8917 153.169C99.7825 152.914 99.6368 153.096 99.6368 152.841C99.6732 152.768 99.8189 152.841 99.8553 152.877C99.8189 152.768 99.8917 152.659 99.7825 152.659C99.7097 152.804 99.4183 152.804 99.2362 152.877V152.549H99.4183C99.3819 152.477 98.8721 152.44 98.9449 152.112C98.9449 151.603 98.7992 151.056 98.7992 150.547C98.9085 150.547 98.9813 150.619 99.0542 150.729C99.0542 150.656 99.0177 150.547 99.0906 150.474C98.9085 150.656 98.9085 150.292 98.8357 150.401C98.3622 150.073 98.69 149.527 98.3622 149.272C97.9616 149.272 91.4795 149.673 91.0061 149.745C91.0061 149.636 91.0061 149.563 91.0425 149.527C90.9332 149.563 90.8968 149.745 90.9696 149.855L91.2246 149.818C91.3338 150.037 91.0789 149.891 91.1517 150.146C90.9332 150.182 90.8604 149.964 90.824 149.782C90.824 149.964 90.6783 150.146 90.9332 150.182C90.8604 150.364 90.6783 150.219 90.6055 150.401C90.6783 150.547 90.8968 150.692 90.824 150.838H90.7511C90.6055 151.275 91.1517 151.384 91.0061 151.748H90.9332C90.824 151.858 91.0061 152.076 90.8968 152.331C90.9332 152.258 91.0789 152.185 91.1153 152.295C91.0425 152.586 91.1881 152.732 91.0425 152.95L91.261 153.096C91.3338 153.97 92.1714 157.393 92.2078 158.303L92.1714 158.267C92.3899 159.614 92.6448 162.418 93.0454 163.802C92.8633 164.057 92.9361 164.348 92.8997 164.603C92.9726 164.458 93.1182 164.494 93.1182 164.603C93.1546 165.295 93.2639 164.64 93.4096 165.332C93.6645 166.133 93.6281 169.265 93.4824 169.993C93.8101 170.357 93.6281 170.867 93.8466 171.231L93.7737 171.195C93.883 171.595 93.7737 173.926 93.8466 174.363L93.883 174.327C94.1015 174.727 93.7737 174.691 93.6645 174.982C93.9922 174.946 94.2107 175.31 94.2107 175.419H94.1379C94.2107 175.638 94.5021 176.075 94.5749 176.402H94.3928C94.5749 176.694 94.5021 177.204 94.5385 177.422C94.4656 177.859 94.1743 178.587 94.4292 179.207L93.9194 179.607L93.9558 179.644C93.9558 179.644 100.256 180.299 101.567 179.461H101.749L101.713 179.316C101.785 179.097 101.603 179.024 101.785 179.024L101.749 179.316C101.785 179.097 101.895 179.243 102.004 179.316C102.004 179.243 102.04 179.134 102.077 179.097C102.04 179.024 102.004 179.097 101.967 179.134C101.931 179.024 101.749 178.879 101.822 178.733C101.822 178.551 102.113 178.733 102.113 178.478C102.222 177.204 102.441 175.965 102.368 174.654C102.441 174.654 102.441 174.691 102.477 174.727C102.368 174.327 102.404 173.963 102.295 173.635C102.368 173.526 102.477 173.489 102.55 173.453C102.441 173.526 102.295 171.523 102.332 171.486Z"  />
<path d="M149.2 164.203C149.382 164.13 149.419 163.948 149.455 163.803C149.237 163.912 149.164 164.058 149.2 164.203Z"  />
<path d="M149.782 155.936H149.454C149.418 155.572 149.819 155.827 149.709 155.463C149.236 155.354 149.746 154.88 149.491 154.771C149.527 154.771 149.527 154.589 149.673 154.589C149.418 154.553 149.6 154.443 149.527 154.334C149.454 154.298 149.454 154.37 149.382 154.407L149.272 154.152C149.345 154.043 149.491 154.006 149.527 154.116C149.564 153.46 149.636 150.328 149.491 149.636C149.309 149.746 149.418 149.964 149.127 150.037C148.945 149.891 149.199 149.782 149.017 149.709C149.454 149.6 149.09 149.309 149.527 149.126L149.272 149.09L149.418 148.981C149.09 148.18 149.272 148.799 149.272 148.07C149.199 147.67 148.799 147.488 148.908 147.269C148.908 147.306 148.762 147.378 148.69 147.306C148.908 147.269 148.508 147.014 148.726 146.941C148.69 146.832 148.69 146.504 148.398 146.65C148.544 146.577 148.58 146.25 148.726 146.432C148.726 146.322 148.762 146.213 148.69 146.14L148.617 146.286C148.544 145.958 148.762 145.74 148.471 145.521L148.362 145.667C148.325 145.485 148.289 145.303 148.58 145.193L148.69 145.412C148.653 145.048 148.617 144.829 148.435 144.574V144.684C148.107 144.319 147.67 142.462 147.269 142.134L147.051 142.317L146.832 142.062C146.832 142.098 147.597 142.134 147.524 142.171C147.488 141.552 146.869 138.347 146.942 137.728C147.051 137.473 147.306 137.655 147.342 137.655C147.233 137.364 147.087 137.546 147.087 137.327C147.087 137.255 147.269 137.291 147.306 137.327C147.233 137.218 147.306 137.109 147.197 137.145C147.124 137.291 146.832 137.255 146.687 137.327L146.65 137.036L146.832 137C146.832 136.927 146.323 136.89 146.359 136.599C146.395 136.089 146.25 135.543 146.213 134.997C146.323 134.997 146.395 135.106 146.468 135.215C146.468 135.142 146.432 135.033 146.505 134.96C146.323 135.106 146.359 134.742 146.286 134.851C145.776 134.56 146.14 134.014 145.776 133.722C145.376 133.759 138.894 134.123 138.457 134.196C138.42 134.123 138.42 134.014 138.457 133.977C138.347 134.014 138.347 134.232 138.42 134.305H138.675C138.784 134.523 138.529 134.378 138.566 134.596C138.347 134.633 138.311 134.451 138.238 134.268C138.238 134.414 138.129 134.596 138.347 134.633C138.274 134.815 138.092 134.669 138.02 134.888C138.129 134.997 138.347 135.142 138.238 135.325H138.202C138.056 135.725 138.602 135.834 138.42 136.235L138.347 136.199C138.238 136.344 138.457 136.563 138.347 136.781C138.384 136.708 138.529 136.636 138.566 136.781C138.457 137.036 138.602 137.182 138.493 137.4L138.711 137.546C138.784 138.42 139.585 141.843 139.658 142.754L139.622 142.717C139.84 144.065 140.095 146.905 140.496 148.289C140.314 148.507 140.387 148.835 140.35 149.054C140.423 148.908 140.569 148.944 140.569 149.054C140.605 149.746 140.714 149.09 140.86 149.782C141.115 150.583 141.042 153.715 140.933 154.443C141.261 154.807 141.042 155.317 141.261 155.681L141.188 155.645C141.333 156.046 141.188 158.376 141.297 158.85L141.333 158.777C141.516 159.177 141.188 159.141 141.115 159.469C141.443 159.396 141.625 159.76 141.661 159.906H141.588C141.661 160.088 141.953 160.525 141.989 160.889L141.807 160.853C142.025 161.144 141.953 161.654 141.953 161.872C141.916 162.346 141.625 163.038 141.843 163.657L141.333 164.057L141.406 164.094C141.406 164.094 147.67 164.786 148.981 163.912L149.163 163.948V163.766C149.236 163.584 149.017 163.475 149.199 163.475V163.766C149.236 163.547 149.345 163.693 149.454 163.766C149.454 163.693 149.491 163.62 149.527 163.547C149.454 163.511 149.454 163.584 149.418 163.62C149.345 163.511 149.163 163.329 149.272 163.22C149.272 163.001 149.564 163.183 149.564 162.965C149.673 161.69 149.855 160.416 149.782 159.141C149.855 159.105 149.855 159.141 149.891 159.177C149.819 158.777 149.819 158.449 149.746 158.085C149.819 157.976 149.928 157.939 150.001 157.903C149.855 157.976 149.746 155.973 149.782 155.936Z"  />
<path d="M116.936 136.089C117.118 135.944 117.118 135.798 117.118 135.652C116.936 135.798 116.863 135.907 116.936 136.089Z"  />
<path d="M116.826 128.369H116.498C116.498 128.005 116.863 128.223 116.79 127.895C116.316 127.823 116.79 127.349 116.535 127.276C116.571 127.276 116.571 127.094 116.717 127.094C116.462 127.058 116.681 126.949 116.608 126.839C116.535 126.803 116.535 126.876 116.462 126.912L116.353 126.657C116.426 126.584 116.571 126.548 116.608 126.657C116.681 126.038 116.753 123.088 116.608 122.433C116.426 122.506 116.535 122.724 116.244 122.797C116.061 122.651 116.28 122.542 116.134 122.469C116.571 122.396 116.207 122.105 116.644 121.959L116.389 121.887L116.535 121.814C116.244 121.049 116.389 121.632 116.462 120.976C116.426 120.576 116.061 120.394 116.207 120.139C116.207 120.175 116.061 120.284 115.989 120.175C116.207 120.139 115.843 119.884 116.061 119.847C116.025 119.738 116.061 119.41 115.77 119.52C115.916 119.483 115.989 119.192 116.098 119.374C116.098 119.265 116.171 119.155 116.098 119.083L115.989 119.228C115.952 118.9 116.207 118.718 115.916 118.5L115.807 118.609C115.807 118.427 115.77 118.245 116.061 118.172L116.171 118.391C116.171 118.026 116.134 117.844 115.989 117.553L115.952 117.662C115.661 117.335 115.442 115.477 115.078 115.15L114.823 115.295L114.641 115.004C114.641 115.04 115.406 115.15 115.333 115.186C115.26 114.603 115.26 111.471 115.442 110.925C115.588 110.707 115.807 110.889 115.843 110.889C115.77 110.634 115.624 110.78 115.661 110.525C115.697 110.488 115.843 110.561 115.879 110.597C115.843 110.488 115.916 110.415 115.807 110.379C115.734 110.525 115.442 110.452 115.26 110.488L115.297 110.197H115.479C115.479 110.16 115.005 110.015 115.115 109.723C115.224 109.25 115.187 108.704 115.26 108.194C115.37 108.23 115.406 108.34 115.479 108.449C115.479 108.376 115.442 108.267 115.552 108.23C115.333 108.303 115.406 108.012 115.333 108.085C114.896 107.684 115.333 107.247 115.042 106.919C114.678 106.847 108.232 105.718 107.758 105.681C107.795 105.572 107.795 105.463 107.831 105.426C107.722 105.463 107.649 105.645 107.722 105.754L107.977 105.79C108.05 106.045 107.831 105.863 107.831 106.082C107.613 106.082 107.576 105.863 107.576 105.681C107.54 105.827 107.394 106.009 107.613 106.082C107.504 106.264 107.358 106.045 107.249 106.264C107.285 106.41 107.504 106.592 107.358 106.774L107.321 106.737C107.103 107.138 107.613 107.393 107.358 107.757L107.321 107.684C107.176 107.83 107.321 108.085 107.176 108.303C107.249 108.23 107.394 108.194 107.394 108.34C107.249 108.595 107.394 108.777 107.212 108.995L107.394 109.177C107.321 110.124 107.321 113.802 107.431 114.749L107.394 114.713C107.467 116.169 107.431 119.119 107.722 120.576C107.504 120.831 107.54 121.122 107.504 121.377C107.576 121.231 107.722 121.304 107.722 121.377C107.686 122.142 107.831 121.45 107.977 122.178C108.195 123.016 108.159 126.293 108.013 127.058C108.341 127.458 108.123 127.968 108.341 128.369L108.268 128.332C108.341 128.514 108.305 129.243 108.341 129.971C108.378 130.699 108.45 131.428 108.523 131.683L108.56 131.61C108.815 132.01 108.487 131.974 108.414 132.338C108.742 132.265 108.96 132.63 108.997 132.739H108.924C109.033 132.957 109.361 133.394 109.47 133.758H109.288C109.506 134.013 109.506 134.596 109.543 134.815C109.506 135.288 109.288 136.089 109.616 136.672L109.179 137.182L109.215 137.254C109.215 137.254 115.479 136.854 116.681 135.834H116.863L116.826 135.689C116.899 135.47 116.681 135.434 116.863 135.397V135.652C116.899 135.47 117.008 135.579 117.118 135.652C117.118 135.543 117.154 135.47 117.19 135.397C117.118 135.397 117.118 135.434 117.081 135.47C117.008 135.397 116.826 135.288 116.899 135.142C116.863 134.96 117.19 135.069 117.154 134.851C117.154 133.649 117.227 132.484 117.045 131.319C117.118 131.282 117.118 131.319 117.154 131.355C117.045 130.991 117.008 130.663 116.899 130.372C116.972 130.262 117.081 130.226 117.154 130.19C117.008 130.262 116.753 128.405 116.826 128.369Z"  />
<path d="M115.948 67.5528C116.13 67.48 116.167 67.3708 116.203 67.2251C116.021 67.3343 115.912 67.4436 115.948 67.5528Z"  />
<path d="M117.079 60.8886L116.752 60.8522C116.752 60.5245 117.116 60.7794 117.043 60.488C116.606 60.3424 117.116 59.9782 116.897 59.869C116.934 59.869 116.934 59.7233 117.079 59.7597C116.861 59.6869 117.043 59.5776 116.97 59.5048C116.934 59.4684 116.897 59.5048 116.824 59.5412L116.752 59.3227C116.824 59.2499 117.006 59.2499 117.006 59.3227C117.152 58.7765 117.516 56.118 117.407 55.4989C117.225 55.5718 117.334 55.7539 117.043 55.8267C116.861 55.6446 117.116 55.5718 116.934 55.4989C117.371 55.4625 117.043 55.1712 117.516 55.0619L117.261 54.9891L117.407 54.9163C117.189 54.2244 117.298 54.7706 117.371 54.1515C117.334 53.7874 117.006 53.5689 117.116 53.3868C117.116 53.4232 116.97 53.496 116.897 53.3868C117.116 53.3868 116.752 53.1319 116.97 53.0954C116.97 53.0226 117.006 52.6949 116.679 52.8041C116.824 52.7677 116.897 52.4764 117.043 52.6584C117.043 52.5492 117.079 52.4764 117.043 52.4035L116.934 52.5128C116.897 52.2214 117.152 52.0758 116.861 51.8573L116.752 51.9665C116.752 51.7844 116.715 51.6388 117.006 51.5659L117.116 51.748C117.116 51.4567 117.079 51.2746 116.934 51.0197V51.0925C116.642 50.8012 116.387 49.0896 116.023 48.7983L115.768 48.9075L115.586 48.6526C115.586 48.689 116.315 48.7983 116.242 48.7983C116.242 48.5434 116.205 47.6693 116.132 46.8318C116.06 45.9578 115.987 45.0838 116.06 44.8288C116.169 44.6103 116.424 44.756 116.46 44.756C116.351 44.5011 116.205 44.6832 116.205 44.4283C116.242 44.3918 116.387 44.4283 116.424 44.4647C116.387 44.3918 116.46 44.2826 116.351 44.2826C116.278 44.4283 115.987 44.3918 115.805 44.4647L115.841 44.1733H116.023C116.023 44.1005 115.513 44.0641 115.586 43.7728C115.659 43.2993 115.477 42.7531 115.441 42.2797C115.55 42.2433 115.623 42.3525 115.695 42.4618C115.695 42.3889 115.659 42.2797 115.732 42.2068C115.55 42.3525 115.55 42.0248 115.513 42.134C115.004 41.8427 115.331 41.2964 114.967 41.0415C114.567 41.0415 108.157 41.9155 107.72 42.0612C107.684 41.9883 107.684 41.9155 107.72 41.9155C107.647 41.9519 107.611 42.0976 107.684 42.134L107.902 42.0976C108.048 42.2433 107.793 42.1704 107.829 42.3161C107.611 42.3889 107.538 42.2433 107.502 42.134C107.502 42.2433 107.356 42.3889 107.611 42.3889C107.538 42.4982 107.356 42.4253 107.283 42.571C107.356 42.6438 107.575 42.7167 107.465 42.8623H107.429C107.283 43.1537 107.829 43.2265 107.647 43.4814H107.575C107.465 43.5543 107.647 43.6999 107.538 43.882C107.575 43.8092 107.72 43.7728 107.793 43.8456C107.684 44.0277 107.829 44.1369 107.684 44.319L107.866 44.4283C107.902 45.1202 108.376 47.8878 108.339 48.689C108.449 49.8179 108.412 52.185 108.631 53.4232C108.412 53.6053 108.449 53.8602 108.412 54.0423C108.485 53.933 108.631 54.0059 108.631 54.0787C108.594 54.6614 108.776 54.1151 108.813 54.7342C108.958 55.4261 108.631 58.121 108.412 58.74C108.703 59.1042 108.449 59.5048 108.631 59.8325L108.558 59.7961C108.667 60.1603 108.266 62.1632 108.339 62.6002L108.376 62.5638C108.558 62.928 108.23 62.8551 108.121 63.1465C108.449 63.1465 108.631 63.4742 108.631 63.5835H108.558C108.631 63.7655 108.886 64.1661 108.922 64.4939L108.74 64.4575C108.922 64.7124 108.813 65.1858 108.849 65.3679C108.74 65.8049 108.412 66.4604 108.631 67.0431L108.121 67.4072L108.157 67.4436C108.157 67.4436 109.723 67.6257 111.435 67.6621C113.183 67.6986 115.076 67.6621 115.768 67.3344H115.95L115.914 67.2251C116.023 67.0431 115.805 66.9702 115.987 67.0066L115.95 67.2251C116.023 67.0431 116.096 67.1523 116.205 67.2251C116.242 67.1523 116.242 67.0795 116.315 67.0431C116.242 67.0066 116.242 67.0795 116.205 67.0795C116.132 67.0066 115.95 66.8974 116.06 66.7881C116.06 66.6061 116.351 66.7881 116.387 66.6061C116.533 65.6228 116.788 64.6031 116.788 63.547C116.897 63.5106 116.861 63.547 116.897 63.5835C116.861 63.2557 116.897 62.9644 116.824 62.673C116.897 62.6002 117.006 62.6002 117.116 62.5638C116.934 62.6002 117.006 60.925 117.079 60.8886Z"  />
<path d="M34.2335 183.686C34.4156 183.613 34.452 183.504 34.4885 183.358C34.3064 183.467 34.1971 183.577 34.2335 183.686Z"  />
<path d="M35.3625 177.021L35.0348 176.985C35.0348 176.657 35.3989 176.912 35.3261 176.621C34.8891 176.475 35.3989 176.111 35.1804 176.002C35.2168 176.002 35.2168 175.856 35.3625 175.893C35.144 175.82 35.3261 175.71 35.2533 175.638C35.2168 175.601 35.1804 175.638 35.1076 175.674L35.0348 175.456C35.1076 175.383 35.2533 175.346 35.2897 175.456C35.4353 174.909 35.7995 172.251 35.6903 171.632C35.5082 171.705 35.6174 171.887 35.3261 171.96C35.144 171.777 35.3625 171.705 35.2168 171.632C35.6538 171.595 35.3261 171.304 35.7995 171.195L35.5446 171.122L35.6903 171.049C35.4718 170.357 35.581 170.903 35.6538 170.284C35.6174 169.884 35.2897 169.702 35.3989 169.52C35.3989 169.556 35.2533 169.629 35.1804 169.52C35.3989 169.52 35.0348 169.265 35.2533 169.228C35.2533 169.155 35.2897 168.828 34.9619 168.937C35.1076 168.901 35.1804 168.609 35.3261 168.791C35.3261 168.682 35.3625 168.609 35.3261 168.536L35.2168 168.646C35.1804 168.354 35.4353 168.172 35.144 167.99L35.0348 168.099C35.0348 167.917 34.9983 167.772 35.2897 167.699L35.3989 167.881C35.3989 167.59 35.3625 167.407 35.2168 167.153V167.225C34.9255 166.934 34.6706 165.186 34.27 164.931L34.0515 165.04L33.8694 164.785C33.8694 164.822 34.5978 164.931 34.5249 164.931C34.5249 164.676 34.4885 163.802 34.4157 162.965C34.3428 162.091 34.27 161.217 34.3428 160.962C34.4521 160.743 34.707 160.889 34.7434 160.889C34.6342 160.634 34.4885 160.78 34.4885 160.561C34.5249 160.525 34.6706 160.561 34.707 160.597C34.6706 160.488 34.7434 160.415 34.6342 160.415C34.5613 160.525 34.27 160.525 34.0879 160.597V160.306H34.27C34.27 160.233 33.7966 160.197 33.8694 159.906C33.9423 159.432 33.7602 158.886 33.7238 158.412C33.833 158.376 33.9058 158.485 33.9787 158.595C33.9787 158.522 33.9423 158.412 34.0151 158.34C33.833 158.485 33.833 158.158 33.7966 158.267C33.2868 157.975 33.6145 157.429 33.2503 157.174C32.8498 157.174 26.4404 158.048 25.967 158.194C25.967 158.121 25.967 158.048 26.0034 158.012C25.8942 158.085 25.8942 158.23 25.967 158.267L26.1855 158.23C26.2947 158.376 26.0398 158.303 26.1127 158.449C25.8942 158.522 25.8213 158.376 25.7849 158.267C25.7849 158.376 25.6392 158.522 25.8942 158.522C25.8213 158.631 25.6392 158.558 25.5664 158.704C25.6392 158.777 25.8577 158.849 25.7485 158.995H25.7121C25.5664 159.286 26.1127 159.323 25.9306 159.614L25.8577 159.578C25.7485 159.687 25.9306 159.833 25.8213 160.015C25.8577 159.942 26.0034 159.906 26.0398 159.978C25.967 160.16 26.1127 160.27 25.967 160.452L26.1491 160.561C26.1855 161.253 26.6589 164.021 26.6225 164.822H26.5861C26.7317 165.914 26.6589 168.318 26.9138 169.556C26.6953 169.738 26.7317 169.993 26.6953 170.175C26.7682 170.066 26.9138 170.102 26.9138 170.212C26.8774 170.794 27.0595 170.248 27.0959 170.867C27.2416 171.559 26.9138 174.254 26.6953 174.873C26.9867 175.237 26.7317 175.638 26.9138 175.965L26.841 175.929C26.9138 176.293 26.5497 178.296 26.6225 178.733L26.6589 178.697C26.841 179.061 26.5132 178.988 26.404 179.279C26.7317 179.279 26.9138 179.571 26.9138 179.716L26.841 179.68C26.9138 179.898 27.1687 180.299 27.2052 180.59H27.0231C27.2052 180.845 27.0959 181.319 27.0959 181.501C27.0231 181.938 26.6953 182.593 26.9138 183.176L26.404 183.54L26.4404 183.576C26.4404 183.576 28.0063 183.722 29.7179 183.795C31.4659 183.831 33.3596 183.795 34.0515 183.467H34.2336L34.1972 183.358C34.3064 183.176 34.0879 183.103 34.27 183.139L34.2336 183.358C34.3064 183.176 34.3793 183.285 34.4885 183.358C34.5249 183.285 34.5249 183.212 34.5978 183.176C34.5249 183.139 34.5249 183.212 34.4885 183.212C34.4157 183.139 34.2336 183.03 34.3428 182.921C34.3428 182.739 34.6342 182.921 34.6342 182.702C34.8163 181.756 35.0712 180.736 35.0712 179.68C35.1804 179.643 35.144 179.68 35.1804 179.716C35.144 179.389 35.1804 179.097 35.1076 178.806C35.1804 178.733 35.2897 178.733 35.3625 178.697C35.2168 178.733 35.2897 177.058 35.3625 177.021Z"  />
<path d="M137.4 111.035C137.582 110.925 137.618 110.78 137.618 110.634C137.436 110.743 137.363 110.889 137.4 111.035Z"  />
<path d="M126.404 81.7192C126.404 81.7557 126.404 81.8285 126.404 81.8649C126.441 81.8285 126.404 81.7557 126.404 81.7192Z"  />
<path d="M137.582 103.169H137.254C137.218 102.804 137.618 103.059 137.509 102.732C137.036 102.622 137.509 102.149 137.254 102.076C137.291 102.076 137.291 101.894 137.473 101.894C137.218 101.858 137.4 101.748 137.327 101.639C137.254 101.603 137.254 101.675 137.181 101.712L137.072 101.457C137.145 101.384 137.291 101.348 137.327 101.421C137.364 100.801 137.364 97.8153 137.181 97.1598C136.999 97.2691 137.145 97.4511 136.854 97.5604C136.672 97.3783 136.89 97.3055 136.708 97.2326C137.145 97.1234 136.781 96.8321 137.218 96.65H136.963L137.109 96.5407C136.781 95.776 136.963 96.3586 136.963 95.6667C136.89 95.2661 136.526 95.1205 136.635 94.902C136.635 94.9384 136.49 95.0112 136.417 94.9384C136.635 94.902 136.235 94.6471 136.453 94.6106C136.417 94.5014 136.417 94.1736 136.125 94.3193C136.271 94.2465 136.307 93.9551 136.453 94.1008C136.453 93.9916 136.49 93.9187 136.417 93.8459L136.344 93.9551C136.271 93.6274 136.49 93.4453 136.198 93.2632L136.089 93.3725C136.053 93.1904 136.016 93.0083 136.307 92.899L136.417 93.1175C136.38 92.7898 136.344 92.5713 136.162 92.3164V92.4256C135.834 92.0979 135.47 90.277 135.069 89.9857L134.851 90.1678L134.632 89.9129C134.632 89.9493 135.397 89.9857 135.324 90.0221C135.251 89.403 134.814 86.344 134.924 85.7614C135.033 85.5429 135.288 85.6885 135.324 85.6885C135.215 85.4336 135.069 85.6157 135.069 85.3608C135.106 85.3244 135.251 85.3608 135.288 85.3972C135.251 85.3244 135.324 85.2151 135.215 85.2151C135.142 85.3608 134.851 85.3244 134.669 85.3972V85.0695H134.851C134.851 85.033 134.341 84.9602 134.414 84.6689C134.45 84.159 134.341 83.6492 134.341 83.1394C134.45 83.1394 134.523 83.2486 134.596 83.3579C134.596 83.285 134.559 83.1758 134.632 83.1029C134.45 83.2486 134.487 82.9209 134.414 83.0301C133.94 82.7024 134.305 82.1925 133.977 81.9012C133.576 81.9012 127.094 81.7919 126.621 81.8284C126.621 81.7191 126.621 81.6463 126.657 81.6099C126.548 81.6463 126.511 81.8284 126.584 81.9376H126.839C126.948 82.1561 126.693 82.0104 126.73 82.2289C126.511 82.2654 126.439 82.0469 126.402 81.8648C126.402 82.0104 126.256 82.1925 126.511 82.2654C126.439 82.411 126.256 82.2654 126.184 82.4474C126.256 82.5931 126.475 82.7388 126.366 82.9209H126.329C126.147 83.3214 126.693 83.4671 126.511 83.8313L126.439 83.7949C126.329 83.9405 126.511 84.159 126.366 84.414C126.402 84.3411 126.548 84.2683 126.584 84.414C126.475 84.6689 126.621 84.8145 126.475 85.033L126.693 85.1787C126.73 86.0891 127.313 89.5487 127.422 90.4591L127.385 90.4227C127.604 91.7701 127.822 94.5378 128.187 95.9216C128.004 96.1766 128.077 96.4679 128.041 96.6864C128.114 96.5407 128.259 96.5771 128.259 96.6864C128.296 97.3783 128.405 96.7228 128.551 97.4147C128.806 98.1795 128.842 101.275 128.733 102.003C129.061 102.367 128.878 102.877 129.097 103.241L129.024 103.205C129.17 103.606 129.061 105.9 129.206 106.337L129.243 106.3C129.461 106.665 129.133 106.665 129.061 106.992C129.388 106.919 129.607 107.247 129.643 107.393H129.57C129.643 107.575 129.971 108.012 130.044 108.34H129.862C130.08 108.595 130.044 109.141 130.08 109.323C130.044 109.796 129.789 110.525 130.08 111.107L129.57 111.544L129.643 111.581C129.643 111.581 135.943 111.69 137.181 110.78H137.364L137.327 110.634C137.4 110.415 137.181 110.379 137.364 110.379V110.634C137.4 110.415 137.509 110.561 137.618 110.634C137.618 110.525 137.655 110.452 137.691 110.379C137.618 110.343 137.618 110.415 137.582 110.452C137.509 110.343 137.327 110.233 137.4 110.088C137.4 109.906 137.691 110.051 137.691 109.833C137.764 108.595 137.873 107.429 137.728 106.191C137.801 106.155 137.801 106.191 137.837 106.228C137.728 105.863 137.728 105.536 137.618 105.208C137.691 105.099 137.801 105.062 137.873 105.062C137.728 105.099 137.546 103.205 137.582 103.169Z"  />
</svg>
