<svg width="151" height="39" viewBox="0 0 151 39" fill="none" xmlns="http://www.w3.org/2000/svg">
<rect width="151" height="39" rx="10" fill="#D9D9D9"/>
<path d="M13.1998 26.646C12.6678 26.646 12.2011 26.5573 11.7998 26.38C11.3984 26.212 11.0811 25.9693 10.8478 25.652C10.6238 25.3347 10.5118 24.9707 10.5118 24.56C10.5118 24.1587 10.6004 23.7807 10.7778 23.426C10.9644 23.0713 11.3051 22.6607 11.7998 22.194C12.0984 21.914 12.3318 21.662 12.4998 21.438C12.6771 21.2047 12.8078 20.9807 12.8918 20.766C12.9851 20.542 13.0458 20.3087 13.0738 20.066C13.0831 19.954 13.1204 19.8653 13.1858 19.8C13.2511 19.7347 13.3398 19.702 13.4518 19.702C13.5731 19.702 13.6664 19.7393 13.7318 19.814C13.7971 19.8887 13.8298 19.996 13.8298 20.136C13.8298 20.4253 13.7924 20.7007 13.7178 20.962C13.6524 21.2233 13.5311 21.4893 13.3538 21.76C13.1858 22.0307 12.9478 22.3247 12.6398 22.642C12.2664 23.0153 12.0098 23.3373 11.8698 23.608C11.7391 23.8693 11.6738 24.1353 11.6738 24.406C11.6738 24.7793 11.8138 25.0733 12.0938 25.288C12.3738 25.512 12.7611 25.624 13.2558 25.624C13.6851 25.624 14.0864 25.5633 14.4598 25.442C14.8331 25.33 15.1878 25.148 15.5238 24.896C15.6638 24.8027 15.7898 24.756 15.9018 24.756C16.0231 24.756 16.1211 24.7887 16.1958 24.854C16.2798 24.9287 16.3311 25.0173 16.3498 25.12C16.3684 25.2227 16.3498 25.33 16.2938 25.442C16.2471 25.554 16.1584 25.6567 16.0278 25.75C15.6638 26.0113 15.2391 26.226 14.7538 26.394C14.2778 26.562 13.7598 26.646 13.1998 26.646ZM13.4658 18.68C13.2418 18.68 13.0551 18.61 12.9058 18.47C12.7658 18.3207 12.6958 18.134 12.6958 17.91C12.6958 17.686 12.7658 17.504 12.9058 17.364C13.0551 17.2147 13.2418 17.14 13.4658 17.14C13.7084 17.14 13.8951 17.2147 14.0258 17.364C14.1658 17.504 14.2358 17.686 14.2358 17.91C14.2358 18.134 14.1658 18.3207 14.0258 18.47C13.8951 18.61 13.7084 18.68 13.4658 18.68ZM18.2308 24C18.0255 24 17.8668 23.9487 17.7548 23.846C17.6521 23.734 17.6008 23.5753 17.6008 23.37V14.76C17.6008 14.5547 17.6521 14.4007 17.7548 14.298C17.8668 14.186 18.0255 14.13 18.2308 14.13H20.9328C22.5288 14.13 23.7608 14.55 24.6288 15.39C25.4968 16.23 25.9308 17.4527 25.9308 19.058C25.9308 19.8607 25.8188 20.57 25.5948 21.186C25.3801 21.7927 25.0581 22.306 24.6288 22.726C24.1995 23.146 23.6768 23.4633 23.0608 23.678C22.4448 23.8927 21.7355 24 20.9328 24H18.2308ZM18.7488 23.02H20.8488C21.5021 23.02 22.0668 22.936 22.5428 22.768C23.0281 22.6 23.4295 22.3527 23.7468 22.026C24.0735 21.6993 24.3161 21.2887 24.4748 20.794C24.6335 20.29 24.7128 19.7113 24.7128 19.058C24.7128 17.742 24.3908 16.7573 23.7468 16.104C23.1028 15.4413 22.1368 15.11 20.8488 15.11H18.7488V23.02ZM30.2454 24.126C29.6948 24.126 29.2374 24.028 28.8734 23.832C28.5188 23.6267 28.2481 23.3233 28.0614 22.922C27.8841 22.5207 27.7954 22.0213 27.7954 21.424V17.672C27.7954 17.476 27.8421 17.3313 27.9354 17.238C28.0381 17.1447 28.1781 17.098 28.3554 17.098C28.5421 17.098 28.6821 17.1447 28.7754 17.238C28.8781 17.3313 28.9294 17.476 28.9294 17.672V21.41C28.9294 22.0073 29.0508 22.4553 29.2934 22.754C29.5454 23.0433 29.9374 23.188 30.4694 23.188C31.0481 23.188 31.5194 22.992 31.8834 22.6C32.2474 22.208 32.4294 21.6947 32.4294 21.06V17.672C32.4294 17.476 32.4761 17.3313 32.5694 17.238C32.6721 17.1447 32.8168 17.098 33.0034 17.098C33.1808 17.098 33.3161 17.1447 33.4094 17.238C33.5121 17.3313 33.5634 17.476 33.5634 17.672V23.51C33.5634 23.902 33.3814 24.098 33.0174 24.098C32.8401 24.098 32.7001 24.0467 32.5974 23.944C32.5041 23.8413 32.4574 23.6967 32.4574 23.51V22.236L32.6394 22.432C32.4528 22.9827 32.1448 23.4027 31.7154 23.692C31.2954 23.9813 30.8054 24.126 30.2454 24.126ZM38.2751 24.126C37.6684 24.126 37.1364 23.9813 36.6791 23.692C36.2311 23.4027 35.8811 22.9967 35.6291 22.474C35.3864 21.942 35.2651 21.3167 35.2651 20.598C35.2651 19.87 35.3864 19.2447 35.6291 18.722C35.8811 18.19 36.2311 17.784 36.6791 17.504C37.1364 17.2147 37.6684 17.07 38.2751 17.07C38.8911 17.07 39.4184 17.224 39.8571 17.532C40.2958 17.84 40.5898 18.2553 40.7391 18.778H40.5851V14.606C40.5851 14.4193 40.6318 14.2793 40.7251 14.186C40.8278 14.0833 40.9724 14.032 41.1591 14.032C41.3364 14.032 41.4718 14.0833 41.5651 14.186C41.6678 14.2793 41.7191 14.4193 41.7191 14.606V23.51C41.7191 23.6967 41.6724 23.8413 41.5791 23.944C41.4858 24.0467 41.3458 24.098 41.1591 24.098C40.9818 24.098 40.8418 24.0467 40.7391 23.944C40.6458 23.8413 40.5991 23.6967 40.5991 23.51V22.18L40.7531 22.376C40.6038 22.908 40.3051 23.3327 39.8571 23.65C39.4184 23.9673 38.8911 24.126 38.2751 24.126ZM38.5131 23.216C38.9331 23.216 39.3018 23.1133 39.6191 22.908C39.9364 22.7027 40.1791 22.404 40.3471 22.012C40.5244 21.62 40.6131 21.1487 40.6131 20.598C40.6131 19.7487 40.4218 19.1 40.0391 18.652C39.6658 18.204 39.1571 17.98 38.5131 17.98C38.0838 17.98 37.7104 18.0827 37.3931 18.288C37.0851 18.484 36.8424 18.778 36.6651 19.17C36.4971 19.5527 36.4131 20.0287 36.4131 20.598C36.4131 21.438 36.6044 22.0867 36.9871 22.544C37.3698 22.992 37.8784 23.216 38.5131 23.216ZM45.9892 24.126C45.5225 24.126 45.1025 24.0373 44.7292 23.86C44.3652 23.6733 44.0759 23.4213 43.8612 23.104C43.6465 22.7867 43.5392 22.432 43.5392 22.04C43.5392 21.536 43.6652 21.1393 43.9172 20.85C44.1785 20.5607 44.6032 20.3553 45.1912 20.234C45.7885 20.1127 46.6005 20.052 47.6272 20.052H48.2572V20.794H47.6412C46.8852 20.794 46.2879 20.8313 45.8492 20.906C45.4199 20.9713 45.1165 21.088 44.9392 21.256C44.7712 21.424 44.6872 21.662 44.6872 21.97C44.6872 22.3527 44.8179 22.6653 45.0792 22.908C45.3499 23.1507 45.7139 23.272 46.1712 23.272C46.5445 23.272 46.8712 23.1833 47.1512 23.006C47.4405 22.8287 47.6645 22.586 47.8232 22.278C47.9912 21.97 48.0752 21.6153 48.0752 21.214V19.618C48.0752 19.0393 47.9585 18.624 47.7252 18.372C47.4919 18.1107 47.1092 17.98 46.5772 17.98C46.2505 17.98 45.9239 18.022 45.5972 18.106C45.2705 18.19 44.9252 18.3253 44.5612 18.512C44.4305 18.5773 44.3185 18.6007 44.2252 18.582C44.1319 18.554 44.0572 18.5027 44.0012 18.428C43.9452 18.3533 43.9125 18.2693 43.9032 18.176C43.8939 18.0733 43.9125 17.9753 43.9592 17.882C44.0152 17.7887 44.0992 17.714 44.2112 17.658C44.6219 17.4527 45.0279 17.3033 45.4292 17.21C45.8305 17.1167 46.2132 17.07 46.5772 17.07C47.1652 17.07 47.6505 17.168 48.0332 17.364C48.4159 17.5507 48.7005 17.84 48.8872 18.232C49.0739 18.6147 49.1672 19.1093 49.1672 19.716V23.51C49.1672 23.6967 49.1205 23.8413 49.0272 23.944C48.9432 24.0467 48.8172 24.098 48.6492 24.098C48.4719 24.098 48.3365 24.0467 48.2432 23.944C48.1499 23.8413 48.1032 23.6967 48.1032 23.51V22.418H48.2292C48.1545 22.7727 48.0099 23.076 47.7952 23.328C47.5899 23.58 47.3332 23.776 47.0252 23.916C46.7172 24.056 46.3719 24.126 45.9892 24.126ZM53.567 24.126C53.147 24.126 52.7224 24.0747 52.293 23.972C51.873 23.8693 51.481 23.692 51.117 23.44C51.0237 23.3747 50.9584 23.3 50.921 23.216C50.8837 23.1227 50.8697 23.034 50.879 22.95C50.8977 22.8567 50.935 22.7773 50.991 22.712C51.0564 22.6467 51.131 22.6093 51.215 22.6C51.3084 22.5813 51.411 22.6 51.523 22.656C51.887 22.88 52.237 23.0387 52.573 23.132C52.9184 23.216 53.259 23.258 53.595 23.258C54.127 23.258 54.5284 23.16 54.799 22.964C55.0697 22.768 55.205 22.502 55.205 22.166C55.205 21.9047 55.1164 21.6993 54.939 21.55C54.7617 21.3913 54.4817 21.27 54.099 21.186L52.825 20.906C52.237 20.7847 51.7984 20.5747 51.509 20.276C51.229 19.9773 51.089 19.59 51.089 19.114C51.089 18.694 51.1964 18.3347 51.411 18.036C51.635 17.728 51.9477 17.49 52.349 17.322C52.7504 17.154 53.217 17.07 53.749 17.07C54.1597 17.07 54.547 17.126 54.911 17.238C55.2844 17.3407 55.6204 17.5087 55.919 17.742C56.0124 17.8073 56.073 17.8867 56.101 17.98C56.1384 18.064 56.143 18.1527 56.115 18.246C56.0964 18.33 56.0544 18.4047 55.989 18.47C55.9237 18.526 55.8444 18.5587 55.751 18.568C55.6577 18.5773 55.5597 18.5493 55.457 18.484C55.177 18.2973 54.8924 18.162 54.603 18.078C54.3137 17.9847 54.029 17.938 53.749 17.938C53.2264 17.938 52.8297 18.0407 52.559 18.246C52.2884 18.4513 52.153 18.722 52.153 19.058C52.153 19.3193 52.237 19.534 52.405 19.702C52.573 19.87 52.8344 19.9913 53.189 20.066L54.463 20.332C55.0697 20.4627 55.5224 20.6727 55.821 20.962C56.129 21.242 56.283 21.6247 56.283 22.11C56.283 22.726 56.0357 23.216 55.541 23.58C55.0464 23.944 54.3884 24.126 53.567 24.126ZM59.7365 21.48C59.6152 21.48 59.5219 21.4427 59.4565 21.368C59.3912 21.284 59.3585 21.172 59.3585 21.032C59.3585 20.7053 59.3959 20.402 59.4705 20.122C59.5545 19.8327 59.6805 19.5387 59.8485 19.24C60.0259 18.9413 60.2639 18.6193 60.5625 18.274C60.7959 17.994 60.9825 17.7467 61.1225 17.532C61.2625 17.3173 61.3605 17.112 61.4165 16.916C61.4819 16.7107 61.5145 16.5053 61.5145 16.3C61.5145 15.908 61.3745 15.6 61.0945 15.376C60.8145 15.1427 60.4272 15.026 59.9325 15.026C59.5032 15.026 59.1065 15.0913 58.7425 15.222C58.3879 15.3433 58.0425 15.53 57.7065 15.782C57.5665 15.8753 57.4359 15.922 57.3145 15.922C57.2025 15.922 57.1092 15.8893 57.0345 15.824C56.9599 15.7587 56.9085 15.6747 56.8805 15.572C56.8619 15.4693 56.8759 15.362 56.9225 15.25C56.9785 15.138 57.0719 15.0353 57.2025 14.942C57.5665 14.6527 57.9959 14.424 58.4905 14.256C58.9852 14.088 59.4845 14.004 59.9885 14.004C60.5205 14.004 60.9872 14.0973 61.3885 14.284C61.7992 14.4613 62.1165 14.718 62.3405 15.054C62.5645 15.3807 62.6765 15.768 62.6765 16.216C62.6765 16.5053 62.6345 16.7853 62.5505 17.056C62.4665 17.3173 62.3312 17.5833 62.1445 17.854C61.9672 18.1247 61.7152 18.4327 61.3885 18.778C61.0992 19.0767 60.8659 19.3567 60.6885 19.618C60.5112 19.87 60.3759 20.1173 60.2825 20.36C60.1985 20.5933 60.1425 20.8407 60.1145 21.102C60.1052 21.214 60.0679 21.3073 60.0025 21.382C59.9372 21.4473 59.8485 21.48 59.7365 21.48ZM59.7225 24.056C59.4892 24.056 59.2979 23.986 59.1485 23.846C59.0085 23.6967 58.9385 23.51 58.9385 23.286C58.9385 23.062 59.0085 22.88 59.1485 22.74C59.2979 22.5907 59.4892 22.516 59.7225 22.516C59.9559 22.516 60.1379 22.5907 60.2685 22.74C60.4085 22.88 60.4785 23.062 60.4785 23.286C60.4785 23.51 60.4085 23.6967 60.2685 23.846C60.1379 23.986 59.9559 24.056 59.7225 24.056ZM68.237 26.618C68.013 26.618 67.8403 26.548 67.719 26.408C67.607 26.2773 67.5556 26.1 67.565 25.876L67.845 20.108C67.8543 19.9587 67.8916 19.8513 67.957 19.786C68.0316 19.7113 68.125 19.674 68.237 19.674C68.349 19.674 68.4376 19.7113 68.503 19.786C68.5683 19.8513 68.6056 19.9587 68.615 20.108L68.881 25.876C68.8903 26.1 68.839 26.2773 68.727 26.408C68.615 26.548 68.4516 26.618 68.237 26.618ZM68.237 18.68C68.0036 18.68 67.817 18.6053 67.677 18.456C67.537 18.3067 67.467 18.1247 67.467 17.91C67.467 17.6767 67.537 17.49 67.677 17.35C67.817 17.21 68.0036 17.14 68.237 17.14C68.4703 17.14 68.6523 17.21 68.783 17.35C68.923 17.49 68.993 17.6767 68.993 17.91C68.993 18.1247 68.923 18.3067 68.783 18.456C68.6523 18.6053 68.4703 18.68 68.237 18.68ZM71.6605 24C71.4552 24 71.2965 23.9487 71.1845 23.846C71.0818 23.734 71.0305 23.5753 71.0305 23.37V14.76C71.0305 14.5547 71.0818 14.4007 71.1845 14.298C71.2965 14.186 71.4552 14.13 71.6605 14.13H76.8685C77.0272 14.13 77.1485 14.172 77.2325 14.256C77.3165 14.34 77.3585 14.4567 77.3585 14.606C77.3585 14.7647 77.3165 14.886 77.2325 14.97C77.1485 15.054 77.0272 15.096 76.8685 15.096H72.1505V18.512H76.5745C76.7332 18.512 76.8545 18.554 76.9385 18.638C77.0225 18.7127 77.0645 18.8293 77.0645 18.988C77.0645 19.1467 77.0225 19.268 76.9385 19.352C76.8545 19.436 76.7332 19.478 76.5745 19.478H72.1505V23.034H76.8685C77.0272 23.034 77.1485 23.076 77.2325 23.16C77.3165 23.244 77.3585 23.3607 77.3585 23.51C77.3585 23.6687 77.3165 23.79 77.2325 23.874C77.1485 23.958 77.0272 24 76.8685 24H71.6605ZM81.2252 24.126C80.8052 24.126 80.3806 24.0747 79.9512 23.972C79.5312 23.8693 79.1392 23.692 78.7752 23.44C78.6819 23.3747 78.6166 23.3 78.5792 23.216C78.5419 23.1227 78.5279 23.034 78.5372 22.95C78.5559 22.8567 78.5932 22.7773 78.6492 22.712C78.7146 22.6467 78.7892 22.6093 78.8732 22.6C78.9666 22.5813 79.0692 22.6 79.1812 22.656C79.5452 22.88 79.8952 23.0387 80.2312 23.132C80.5766 23.216 80.9172 23.258 81.2532 23.258C81.7852 23.258 82.1866 23.16 82.4572 22.964C82.7279 22.768 82.8632 22.502 82.8632 22.166C82.8632 21.9047 82.7746 21.6993 82.5972 21.55C82.4199 21.3913 82.1399 21.27 81.7572 21.186L80.4832 20.906C79.8952 20.7847 79.4566 20.5747 79.1672 20.276C78.8872 19.9773 78.7472 19.59 78.7472 19.114C78.7472 18.694 78.8546 18.3347 79.0692 18.036C79.2932 17.728 79.6059 17.49 80.0072 17.322C80.4086 17.154 80.8752 17.07 81.4072 17.07C81.8179 17.07 82.2052 17.126 82.5692 17.238C82.9426 17.3407 83.2786 17.5087 83.5772 17.742C83.6706 17.8073 83.7312 17.8867 83.7592 17.98C83.7966 18.064 83.8012 18.1527 83.7732 18.246C83.7546 18.33 83.7126 18.4047 83.6472 18.47C83.5819 18.526 83.5026 18.5587 83.4092 18.568C83.3159 18.5773 83.2179 18.5493 83.1152 18.484C82.8352 18.2973 82.5506 18.162 82.2612 18.078C81.9719 17.9847 81.6872 17.938 81.4072 17.938C80.8846 17.938 80.4879 18.0407 80.2172 18.246C79.9466 18.4513 79.8112 18.722 79.8112 19.058C79.8112 19.3193 79.8952 19.534 80.0632 19.702C80.2312 19.87 80.4926 19.9913 80.8472 20.066L82.1212 20.332C82.7279 20.4627 83.1806 20.6727 83.4792 20.962C83.7872 21.242 83.9412 21.6247 83.9412 22.11C83.9412 22.726 83.6939 23.216 83.1992 23.58C82.7046 23.944 82.0466 24.126 81.2252 24.126ZM88.5535 24.126C87.8721 24.126 87.2841 23.9767 86.7895 23.678C86.2948 23.3793 85.9121 22.964 85.6415 22.432C85.3801 21.8907 85.2495 21.2653 85.2495 20.556C85.2495 20.0147 85.3241 19.5293 85.4735 19.1C85.6228 18.6707 85.8421 18.3067 86.1315 18.008C86.4208 17.7 86.7661 17.4667 87.1675 17.308C87.5781 17.1493 88.0401 17.07 88.5535 17.07C88.8895 17.07 89.2395 17.1213 89.6035 17.224C89.9675 17.3267 90.2988 17.504 90.5975 17.756C90.6908 17.8213 90.7515 17.9007 90.7795 17.994C90.8075 18.0873 90.8075 18.1807 90.7795 18.274C90.7515 18.358 90.7048 18.4327 90.6395 18.498C90.5741 18.554 90.4901 18.5867 90.3875 18.596C90.2941 18.6053 90.1961 18.5727 90.0935 18.498C89.8508 18.3113 89.6035 18.1807 89.3515 18.106C89.0995 18.0313 88.8568 17.994 88.6235 17.994C88.2595 17.994 87.9421 18.0547 87.6715 18.176C87.4008 18.288 87.1721 18.4513 86.9855 18.666C86.7988 18.8807 86.6541 19.1467 86.5515 19.464C86.4581 19.7813 86.4115 20.15 86.4115 20.57C86.4115 21.382 86.6028 22.026 86.9855 22.502C87.3681 22.9687 87.9141 23.202 88.6235 23.202C88.8568 23.202 89.0948 23.1647 89.3375 23.09C89.5895 23.0153 89.8415 22.8847 90.0935 22.698C90.1961 22.6233 90.2941 22.5907 90.3875 22.6C90.4808 22.6093 90.5601 22.6467 90.6255 22.712C90.6908 22.768 90.7328 22.8427 90.7515 22.936C90.7795 23.0293 90.7795 23.1227 90.7515 23.216C90.7235 23.3 90.6628 23.3747 90.5695 23.44C90.2708 23.6827 89.9441 23.86 89.5895 23.972C89.2348 24.0747 88.8895 24.126 88.5535 24.126ZM92.7239 24.098C92.5373 24.098 92.3926 24.0467 92.2899 23.944C92.1966 23.8413 92.1499 23.6967 92.1499 23.51V17.672C92.1499 17.4853 92.1966 17.3453 92.2899 17.252C92.3833 17.1493 92.5186 17.098 92.6959 17.098C92.8733 17.098 93.0086 17.1493 93.1019 17.252C93.2046 17.3453 93.2559 17.4853 93.2559 17.672V18.806H93.1159C93.2653 18.2553 93.5499 17.8307 93.9699 17.532C94.3899 17.2333 94.9079 17.0747 95.5239 17.056C95.6639 17.0467 95.7759 17.0793 95.8599 17.154C95.9439 17.2193 95.9906 17.336 95.9999 17.504C96.0093 17.6627 95.9719 17.7887 95.8879 17.882C95.8039 17.9753 95.6733 18.0313 95.4959 18.05L95.2719 18.078C94.6373 18.134 94.1473 18.3393 93.8019 18.694C93.4659 19.0393 93.2979 19.5153 93.2979 20.122V23.51C93.2979 23.6967 93.2466 23.8413 93.1439 23.944C93.0506 24.0467 92.9106 24.098 92.7239 24.098ZM97.7275 24.07C97.5408 24.07 97.4008 24.0187 97.3075 23.916C97.2142 23.804 97.1675 23.65 97.1675 23.454V17.728C97.1675 17.532 97.2142 17.3827 97.3075 17.28C97.4008 17.1773 97.5408 17.126 97.7275 17.126C97.9048 17.126 98.0448 17.1773 98.1475 17.28C98.2502 17.3827 98.3015 17.532 98.3015 17.728V23.454C98.3015 23.65 98.2502 23.804 98.1475 23.916C98.0542 24.0187 97.9142 24.07 97.7275 24.07ZM98.1895 16.216C98.1242 16.3093 98.0448 16.3653 97.9515 16.384C97.8582 16.3933 97.7695 16.3793 97.6855 16.342C97.6015 16.2953 97.5408 16.23 97.5035 16.146C97.4662 16.062 97.4755 15.964 97.5315 15.852L98.7075 13.57C98.7728 13.4393 98.8568 13.3553 98.9595 13.318C99.0622 13.2807 99.1648 13.276 99.2675 13.304C99.3795 13.3227 99.4728 13.3693 99.5475 13.444C99.6222 13.5187 99.6642 13.6073 99.6735 13.71C99.6922 13.8127 99.6642 13.92 99.5895 14.032L98.1895 16.216ZM104.057 24.126C103.441 24.126 102.909 23.9673 102.461 23.65C102.022 23.3327 101.728 22.908 101.579 22.376L101.733 22.222V23.51C101.733 23.6967 101.681 23.8413 101.579 23.944C101.485 24.0467 101.35 24.098 101.173 24.098C100.986 24.098 100.846 24.0467 100.753 23.944C100.659 23.8413 100.613 23.6967 100.613 23.51V14.606C100.613 14.4193 100.659 14.2793 100.753 14.186C100.846 14.0833 100.986 14.032 101.173 14.032C101.35 14.032 101.49 14.0833 101.593 14.186C101.695 14.2793 101.747 14.4193 101.747 14.606V18.778H101.579C101.737 18.2553 102.036 17.84 102.475 17.532C102.913 17.224 103.441 17.07 104.057 17.07C104.673 17.07 105.205 17.2147 105.653 17.504C106.101 17.784 106.446 18.19 106.689 18.722C106.941 19.2447 107.067 19.87 107.067 20.598C107.067 21.3167 106.941 21.942 106.689 22.474C106.446 22.9967 106.096 23.4027 105.639 23.692C105.191 23.9813 104.663 24.126 104.057 24.126ZM103.819 23.216C104.248 23.216 104.617 23.1133 104.925 22.908C105.242 22.7027 105.485 22.404 105.653 22.012C105.83 21.62 105.919 21.1487 105.919 20.598C105.919 19.7487 105.727 19.1 105.345 18.652C104.971 18.204 104.463 17.98 103.819 17.98C103.399 17.98 103.03 18.0827 102.713 18.288C102.395 18.484 102.148 18.778 101.971 19.17C101.803 19.5527 101.719 20.0287 101.719 20.598C101.719 21.438 101.91 22.0867 102.293 22.544C102.675 22.992 103.184 23.216 103.819 23.216ZM111.841 24.126C111.122 24.126 110.502 23.986 109.979 23.706C109.466 23.4167 109.064 23.0107 108.775 22.488C108.495 21.9653 108.355 21.34 108.355 20.612C108.355 19.9027 108.495 19.2867 108.775 18.764C109.055 18.232 109.438 17.8167 109.923 17.518C110.418 17.2193 110.987 17.07 111.631 17.07C112.088 17.07 112.499 17.1493 112.863 17.308C113.227 17.4573 113.535 17.6767 113.787 17.966C114.048 18.2553 114.244 18.6053 114.375 19.016C114.515 19.4267 114.585 19.8887 114.585 20.402C114.585 20.5513 114.543 20.6633 114.459 20.738C114.375 20.8033 114.254 20.836 114.095 20.836H109.223V20.094H113.829L113.605 20.276C113.605 19.772 113.53 19.3473 113.381 19.002C113.232 18.6473 113.012 18.3767 112.723 18.19C112.443 18.0033 112.088 17.91 111.659 17.91C111.183 17.91 110.777 18.022 110.441 18.246C110.114 18.4607 109.867 18.764 109.699 19.156C109.531 19.5387 109.447 19.9867 109.447 20.5V20.584C109.447 21.4427 109.652 22.096 110.063 22.544C110.483 22.992 111.076 23.216 111.841 23.216C112.158 23.216 112.471 23.174 112.779 23.09C113.096 23.006 113.404 22.866 113.703 22.67C113.834 22.586 113.95 22.5487 114.053 22.558C114.165 22.558 114.254 22.5907 114.319 22.656C114.384 22.712 114.426 22.7867 114.445 22.88C114.473 22.964 114.464 23.0573 114.417 23.16C114.38 23.2627 114.3 23.3513 114.179 23.426C113.871 23.65 113.507 23.8227 113.087 23.944C112.667 24.0653 112.252 24.126 111.841 24.126ZM116.786 24.098C116.599 24.098 116.459 24.0467 116.366 23.944C116.273 23.8413 116.226 23.6967 116.226 23.51V17.672C116.226 17.4853 116.273 17.3453 116.366 17.252C116.459 17.1493 116.595 17.098 116.772 17.098C116.949 17.098 117.085 17.1493 117.178 17.252C117.281 17.3453 117.332 17.4853 117.332 17.672V18.876L117.178 18.708C117.374 18.1667 117.691 17.7607 118.13 17.49C118.578 17.21 119.091 17.07 119.67 17.07C120.211 17.07 120.659 17.168 121.014 17.364C121.378 17.56 121.649 17.8587 121.826 18.26C122.003 18.652 122.092 19.1513 122.092 19.758V23.51C122.092 23.6967 122.041 23.8413 121.938 23.944C121.845 24.0467 121.709 24.098 121.532 24.098C121.345 24.098 121.201 24.0467 121.098 23.944C121.005 23.8413 120.958 23.6967 120.958 23.51V19.828C120.958 19.1933 120.832 18.7313 120.58 18.442C120.337 18.1433 119.945 17.994 119.404 17.994C118.779 17.994 118.279 18.19 117.906 18.582C117.542 18.9647 117.36 19.478 117.36 20.122V23.51C117.36 23.902 117.169 24.098 116.786 24.098ZM127.011 24.126C126.348 24.126 125.774 23.9813 125.289 23.692C124.804 23.4027 124.426 22.9967 124.155 22.474C123.894 21.942 123.763 21.3167 123.763 20.598C123.763 20.0567 123.838 19.5713 123.987 19.142C124.136 18.7033 124.356 18.33 124.645 18.022C124.934 17.714 125.275 17.4807 125.667 17.322C126.068 17.154 126.516 17.07 127.011 17.07C127.674 17.07 128.248 17.2147 128.733 17.504C129.218 17.7933 129.592 18.204 129.853 18.736C130.124 19.2587 130.259 19.8793 130.259 20.598C130.259 21.1393 130.184 21.6247 130.035 22.054C129.886 22.4833 129.666 22.8567 129.377 23.174C129.088 23.482 128.742 23.72 128.341 23.888C127.949 24.0467 127.506 24.126 127.011 24.126ZM127.011 23.216C127.431 23.216 127.8 23.1133 128.117 22.908C128.434 22.7027 128.677 22.404 128.845 22.012C129.022 21.62 129.111 21.1487 129.111 20.598C129.111 19.7487 128.92 19.1 128.537 18.652C128.164 18.204 127.655 17.98 127.011 17.98C126.582 17.98 126.208 18.0827 125.891 18.288C125.583 18.484 125.34 18.778 125.163 19.17C124.995 19.5527 124.911 20.0287 124.911 20.598C124.911 21.438 125.102 22.0867 125.485 22.544C125.868 22.992 126.376 23.216 127.011 23.216ZM134.258 24.126C133.838 24.126 133.414 24.0747 132.984 23.972C132.564 23.8693 132.172 23.692 131.808 23.44C131.715 23.3747 131.65 23.3 131.612 23.216C131.575 23.1227 131.561 23.034 131.57 22.95C131.589 22.8567 131.626 22.7773 131.682 22.712C131.748 22.6467 131.822 22.6093 131.906 22.6C132 22.5813 132.102 22.6 132.214 22.656C132.578 22.88 132.928 23.0387 133.264 23.132C133.61 23.216 133.95 23.258 134.286 23.258C134.818 23.258 135.22 23.16 135.49 22.964C135.761 22.768 135.896 22.502 135.896 22.166C135.896 21.9047 135.808 21.6993 135.63 21.55C135.453 21.3913 135.173 21.27 134.79 21.186L133.516 20.906C132.928 20.7847 132.49 20.5747 132.2 20.276C131.92 19.9773 131.78 19.59 131.78 19.114C131.78 18.694 131.888 18.3347 132.102 18.036C132.326 17.728 132.639 17.49 133.04 17.322C133.442 17.154 133.908 17.07 134.44 17.07C134.851 17.07 135.238 17.126 135.602 17.238C135.976 17.3407 136.312 17.5087 136.61 17.742C136.704 17.8073 136.764 17.8867 136.792 17.98C136.83 18.064 136.834 18.1527 136.806 18.246C136.788 18.33 136.746 18.4047 136.68 18.47C136.615 18.526 136.536 18.5587 136.442 18.568C136.349 18.5773 136.251 18.5493 136.148 18.484C135.868 18.2973 135.584 18.162 135.294 18.078C135.005 17.9847 134.72 17.938 134.44 17.938C133.918 17.938 133.521 18.0407 133.25 18.246C132.98 18.4513 132.844 18.722 132.844 19.058C132.844 19.3193 132.928 19.534 133.096 19.702C133.264 19.87 133.526 19.9913 133.88 20.066L135.154 20.332C135.761 20.4627 136.214 20.6727 136.512 20.962C136.82 21.242 136.974 21.6247 136.974 22.11C136.974 22.726 136.727 23.216 136.232 23.58C135.738 23.944 135.08 24.126 134.258 24.126ZM139.249 21.494C139.137 21.494 139.043 21.4567 138.969 21.382C138.903 21.3073 138.866 21.1953 138.857 21.046L138.577 14.774C138.567 14.55 138.619 14.3727 138.731 14.242C138.852 14.102 139.025 14.032 139.249 14.032C139.463 14.032 139.627 14.102 139.739 14.242C139.851 14.3727 139.902 14.55 139.893 14.774L139.613 21.046C139.613 21.1953 139.58 21.3073 139.515 21.382C139.449 21.4567 139.361 21.494 139.249 21.494ZM139.249 24.056C139.015 24.056 138.829 23.986 138.689 23.846C138.549 23.6967 138.479 23.51 138.479 23.286C138.479 23.062 138.549 22.88 138.689 22.74C138.829 22.5907 139.015 22.516 139.249 22.516C139.482 22.516 139.664 22.5907 139.795 22.74C139.935 22.88 140.005 23.062 140.005 23.286C140.005 23.51 139.935 23.6967 139.795 23.846C139.664 23.986 139.482 24.056 139.249 24.056Z" fill="black"/>
</svg>
