<svg width="51" height="51" viewBox="0 0 51 51" fill="none" xmlns="http://www.w3.org/2000/svg">
<path d="M43.5678 7.42063C41.2182 5.05915 38.4196 3.18679 35.3352 1.91278C32.2507 0.638758 28.9422 -0.0114243 25.6025 0.000151902C11.6095 0.000151902 0.205026 11.3476 0.205026 25.2706C0.205026 29.7331 1.38392 34.0681 3.58794 37.893L0 51L13.4548 47.481C17.1709 49.4955 21.3482 50.5665 25.6025 50.5665C39.5955 50.5665 51 39.219 51 25.2961C51 18.5386 48.3603 12.1891 43.5678 7.42063ZM25.6025 46.2825C21.8095 46.2825 18.0935 45.2625 14.8387 43.35L14.0698 42.891L6.07387 44.982L8.201 37.23L7.68844 36.4395C5.58116 33.0913 4.46222 29.2211 4.4593 25.2706C4.4593 13.6936 13.9417 4.25864 25.5769 4.25864C31.2151 4.25864 36.5201 6.45163 40.4925 10.4296C42.4594 12.3777 44.0181 14.6949 45.0783 17.2468C46.1386 19.7988 46.6792 22.5347 46.6688 25.2961C46.7201 36.873 37.2377 46.2825 25.6025 46.2825ZM37.1864 30.5746C36.5457 30.2686 33.4191 28.7386 32.8553 28.5091C32.2658 28.3051 31.8558 28.2031 31.4201 28.8151C30.9844 29.4526 29.7799 30.8806 29.4211 31.2886C29.0623 31.7221 28.6779 31.7731 28.0372 31.4416C27.3965 31.1356 25.3462 30.4471 22.9372 28.3051C21.0407 26.6221 19.7849 24.5566 19.4005 23.9191C19.0417 23.2816 19.3492 22.9501 19.6824 22.6186C19.9643 22.3381 20.3231 21.8791 20.6307 21.5221C20.9382 21.1651 21.0663 20.8846 21.2714 20.4766C21.4764 20.0431 21.3739 19.6861 21.2201 19.3801C21.0663 19.0741 19.7849 15.9631 19.2724 14.6881C18.7598 13.4641 18.2216 13.6171 17.8372 13.5916H16.607C16.1714 13.5916 15.505 13.7446 14.9156 14.3821C14.3518 15.0196 12.7116 16.5496 12.7116 19.6606C12.7116 22.7716 14.9925 25.7806 15.3 26.1886C15.6075 26.6221 19.7849 32.9971 26.1407 35.7255C27.6528 36.3885 28.8317 36.771 29.7543 37.0515C31.2663 37.536 32.6502 37.4595 33.7523 37.3065C34.9824 37.128 37.5196 35.7765 38.0322 34.2976C38.5703 32.8186 38.5703 31.5691 38.391 31.2886C38.2116 31.0081 37.8271 30.8806 37.1864 30.5746Z" fill="#8A2666"/>
</svg>
