<svg width="198" height="113" viewBox="0 0 198 113" fill="none" xmlns="http://www.w3.org/2000/svg">
<path d="M24.707 106.695C22.6433 108.702 20.5796 110.192 18.5159 111.109C16.4522 112.084 14.1019 112.543 11.465 112.543C7.96815 112.543 5.21656 111.683 3.15287 110.02C1.03185 108.358 0 106.122 0 103.371C0 101.02 0.859873 98.9566 2.57962 97.1222C4.29936 95.3451 6.87898 94.084 10.4331 93.3961C6.99363 92.0776 5.33121 89.8993 5.33121 86.861C5.33121 84.3961 6.47771 82.275 8.82803 80.498C11.1783 78.7209 13.9873 77.8037 17.3121 77.8037C19.7197 77.8037 21.4395 78.3196 22.5287 79.2368C23.5605 80.154 24.1338 81.0139 24.1338 81.7591C24.1338 82.275 23.7325 83.0203 22.9299 83.9948C22.1274 85.0266 21.5541 85.5426 21.1529 85.5426C20.7516 85.5426 20.4076 84.912 20.2357 83.7082C19.7771 80.9566 18.6879 79.6381 16.9108 79.6381C15.5924 79.6381 14.3312 80.3833 13.242 81.8738C12.1529 83.4215 11.5796 85.1413 11.5796 87.033C11.5796 90.1286 13.0701 91.6763 16.1083 91.6763C16.6242 91.6763 16.9108 91.6763 17.1401 91.7336C17.3121 91.791 17.3694 91.9056 17.3694 92.1349C17.3694 92.7655 17.2548 93.4534 17.0255 94.1413C16.7962 94.8865 16.4522 95.2305 16.1083 95.2305C15.9936 95.2305 15.5924 95.2305 14.9045 95.1158C14.2166 95.0585 13.6433 95.0012 13.1274 95.0012C11.4076 95.0012 9.97452 95.6891 8.71338 97.0649C7.50955 98.4407 6.93631 100.16 6.93631 102.109C6.93631 104.23 7.6242 106.008 9.05733 107.383C10.4904 108.816 12.2675 109.504 14.4459 109.504C16.2229 109.504 18 108.988 19.8344 108.071C21.6115 107.097 23.2166 105.721 24.707 103.944V106.695ZM48.2102 106.695C44.5414 110.594 41.3885 112.543 38.7516 112.543C37.6624 112.543 36.8025 112.141 36.172 111.396C35.4841 110.651 35.1401 109.676 35.1401 108.415C35.1401 106.695 35.8853 104.058 37.2611 100.562C38.0064 98.67 38.4076 97.4661 38.4076 96.9502C38.4076 96.4343 38.1783 96.205 37.7771 96.205C37.5478 96.205 37.2611 96.3196 36.9172 96.5489C36.5732 96.7209 36.172 97.0649 35.7134 97.4661C35.3121 97.8101 34.9108 98.2687 34.3949 98.7846C33.9936 99.2432 33.4777 99.7591 33.0191 100.332L31.6433 101.88C31.0701 102.625 30.7261 103.371 30.5541 104.173C30.3248 105.549 30.1529 106.753 30.0955 107.899C30.0382 108.759 29.9809 109.906 29.9809 111.339L24.707 112.6C24.535 110.422 24.4777 108.816 24.4777 107.785C24.4777 105.205 24.7643 102.74 25.3376 100.447C25.9682 98.154 26.9427 95.5744 28.2611 92.7082L34.1083 91.5617C32.8471 94.8865 32.0446 97.4661 31.6433 99.3578C34.2803 96.4343 36.3439 94.4279 37.8917 93.2814C39.4395 92.1922 40.8153 91.619 42.0191 91.619C42.8217 91.619 43.5096 91.9056 44.0828 92.5362C44.5987 93.1668 44.8853 93.912 44.8853 94.8292C44.8853 96.377 44.1975 98.8993 42.8217 102.396C41.8471 104.804 41.3885 106.409 41.3885 107.097C41.3885 108.071 41.7898 108.587 42.5924 108.587C43.7389 108.587 45.6306 107.039 48.2102 103.944V106.695ZM62.0255 106.695C60.0191 108.702 58.242 110.135 56.8089 111.109C55.3185 112.084 53.8853 112.543 52.5669 112.543C51.1911 112.543 50.1019 111.969 49.242 110.823C48.3822 109.619 47.9809 108.129 47.9809 106.237C47.9809 104.574 48.3822 102.396 49.1847 99.6445L50.2166 96.033L48.3822 96.1477L49.1274 92.3642L51.4204 92.2496L53.6561 84.7973L60.0764 83.4789L57.6688 91.791L60.9936 91.619L60.1911 95.2878L56.465 95.5744L54.8599 100.963C54.3439 102.855 54.0573 104.345 54.0573 105.434C54.0573 106.18 54.2293 106.753 54.6306 107.269C54.9745 107.727 55.4904 107.957 56.0637 107.957C56.8662 107.957 57.7261 107.727 58.4713 107.211C59.2739 106.695 60.4777 105.606 62.0255 103.944V106.695ZM79.9108 106.695C75.8981 110.594 72.8026 112.6 70.6242 112.6C69.6497 112.6 68.8471 112.141 68.1592 111.339C67.4713 110.536 67.1847 109.504 67.1847 108.301C67.1847 106.065 68.3885 103.027 70.7962 99.2432C69.5924 99.8164 68.3312 100.275 66.8981 100.504C65.8662 102.396 64.2038 104.46 62.0255 106.695H61.4522V104.517C62.7134 103.256 63.8025 101.88 64.8344 100.39C63.4586 99.7591 62.7707 98.8419 62.7707 97.6381C62.7707 96.4343 63.172 95.1158 64.0318 93.6827C64.8917 92.3069 66.0382 91.619 67.4713 91.619C68.7325 91.619 69.3631 92.2496 69.3631 93.5107C69.3631 94.5426 69.0191 95.9757 68.2739 97.8674C70.9682 97.5808 73.2611 95.5171 75.2102 91.7336L77.4459 91.6763L75.2102 97.8101C74.2357 100.39 73.6624 102.167 73.3758 103.084C73.1465 104.001 72.9745 104.861 72.9745 105.549C72.9745 106.237 73.1465 106.753 73.4904 107.154C73.7771 107.555 74.1783 107.785 74.6943 107.785C75.2675 107.785 75.8408 107.555 76.3567 107.154C76.8726 106.753 78.0764 105.721 79.9108 103.944V106.695ZM97.8535 106.695C95.7898 108.702 94.0127 110.135 92.4076 111.109C90.7452 112.084 88.9682 112.543 87.0191 112.543C84.8408 112.543 83.121 111.855 81.8026 110.479C80.4268 109.046 79.7962 107.211 79.7962 104.976C79.7962 101.594 80.9427 98.498 83.293 95.7464C85.6433 92.9948 88.2229 91.6763 91.0892 91.6763C92.5796 91.6763 93.7834 92.0203 94.7006 92.8228C95.5605 93.568 96.0191 94.5999 96.0191 95.8037C96.0191 99.1286 92.5223 101.823 85.4713 103.887C86.1019 106.982 87.7643 108.587 90.4586 108.587C91.5478 108.587 92.5223 108.243 93.4968 107.727C94.4713 107.154 95.9045 105.893 97.8535 103.944V106.695ZM85.2994 102.281C89.3694 101.078 91.4331 98.9566 91.4331 95.861C91.4331 94.3133 90.8599 93.568 89.7134 93.568C88.6815 93.568 87.6497 94.3706 86.7325 95.9757C85.758 97.5808 85.2994 99.7018 85.2994 102.281ZM128.522 78.205C124.911 81.7018 122.274 85.3706 120.669 89.2687C119.006 93.2241 118.146 97.0075 118.146 100.619C118.146 102.969 118.605 104.804 119.58 106.18C120.497 107.498 121.758 108.186 123.306 108.186C126.459 108.186 129.783 105.434 133.223 99.8738C136.662 94.3706 138.325 89.2114 138.325 84.5107C138.325 83.0776 138.096 81.9884 137.637 81.1286C137.178 80.326 136.605 79.8674 135.86 79.8674C134.484 79.8674 133.166 80.9566 131.962 83.0203C130.815 85.1413 130.185 86.9757 130.185 88.6381C130.185 89.7846 130.758 90.4152 131.847 90.5871C132.306 90.6445 132.478 90.8738 132.478 91.2177C132.478 91.9056 132.134 92.5935 131.446 93.2814C130.701 93.9693 129.955 94.3133 129.153 94.3133C128.178 94.3133 127.433 93.8547 126.745 92.9948C126.115 92.1349 125.771 91.0457 125.771 89.7273C125.771 86.9757 126.803 84.2814 128.924 81.7018C130.987 79.1222 133.108 77.8037 135.287 77.8037C136.777 77.8037 137.981 78.377 138.841 79.5808C139.701 80.7846 140.102 82.3897 140.102 84.4534C140.102 88.4088 139.013 92.6508 136.834 97.1222C134.599 101.651 131.847 105.32 128.522 108.186C125.255 111.109 122.102 112.543 119.178 112.543C116.943 112.543 115.051 111.568 113.561 109.676C112.07 107.727 111.325 105.262 111.325 102.281C111.325 99.0139 112.013 95.8037 113.274 92.4789C114.592 89.2114 116.255 86.2878 118.318 83.6508C120.382 81.1286 121.987 79.4661 123.191 78.8356C124.452 78.1477 126.229 77.8037 128.522 77.8037V78.205ZM157.127 106.695C154.949 108.702 153.057 110.135 151.452 111.109C149.79 112.084 148.242 112.543 146.752 112.543C145.032 112.543 143.656 111.855 142.624 110.536C141.535 109.218 141.019 107.441 141.019 105.205C141.019 101.88 141.764 97.8101 143.197 93.1094C144.688 88.4088 146.408 84.1094 148.529 80.154L154.605 77.861C154.777 77.8037 154.949 77.8037 155.006 77.8037C155.465 77.8037 155.866 78.0903 156.153 78.7782C156.439 79.4661 156.611 80.3833 156.611 81.5298C156.611 84.7973 155.866 87.9502 154.376 90.9884C152.828 94.084 150.478 97.3515 147.325 100.791C147.21 102.453 147.096 103.6 147.096 104.23C147.096 105.606 147.382 106.695 147.898 107.498C148.414 108.358 149.102 108.759 149.904 108.759C150.764 108.759 151.682 108.415 152.656 107.785C153.631 107.211 155.121 105.893 157.127 103.944V106.695ZM147.955 97.2942C149.962 95.0585 151.624 92.5362 152.885 89.7273C154.146 86.9184 154.777 84.568 154.777 82.5043C154.777 81.9311 154.72 81.4725 154.548 81.0712C154.376 80.7273 154.146 80.5553 153.86 80.5553C153.229 80.5553 152.427 82.0457 151.28 84.9693C150.134 87.8929 149.045 92.0203 147.955 97.2942ZM182.752 106.695C180.172 109.103 178.338 110.708 177.248 111.453C176.159 112.141 175.07 112.543 174.096 112.543C171.573 112.543 170.369 110.307 170.484 105.836C168.879 108.129 167.446 109.791 166.07 110.88C164.752 112.027 163.318 112.543 161.885 112.543C160.51 112.543 159.306 111.855 158.331 110.536C157.357 109.218 156.841 107.613 156.841 105.721C156.841 103.313 157.471 101.02 158.79 98.8419C160.166 96.6636 161.828 94.9438 163.892 93.568C165.955 92.2496 167.79 91.5617 169.338 91.5617C171.344 91.5617 172.777 92.4789 173.58 94.3133L178.452 91.619H179.771L177.65 98.6126C176.618 102.167 176.045 104.574 176.045 105.893C176.045 107.269 176.561 107.957 177.535 107.957C178.108 107.957 178.796 107.613 179.541 106.982C180.344 106.294 181.376 105.32 182.752 103.944V106.695ZM165.21 108.014C166.815 108.014 168.306 106.638 169.739 103.887C171.115 101.192 171.803 98.67 171.803 96.377C171.803 95.4598 171.631 94.7719 171.229 94.2559C170.828 93.7973 170.312 93.5107 169.624 93.5107C168.019 93.5107 166.529 94.8865 165.096 97.5808C163.662 100.332 162.917 102.797 162.917 105.09C162.917 105.95 163.146 106.695 163.605 107.211C164.006 107.727 164.522 108.014 165.21 108.014ZM190.089 92.6508C191.178 92.3642 192.325 92.1349 193.414 91.9056C194.561 91.7336 195.191 91.6763 195.42 91.6763C195.592 91.6763 195.707 91.7336 195.707 91.8483C195.707 92.0776 195.592 92.3069 195.478 92.5935C195.248 93.3387 195.076 94.0266 195.076 94.7145C195.076 95.5171 195.592 96.6636 196.567 98.0967C197.484 99.5298 198 100.906 198 102.109C198 104.574 196.796 106.925 194.446 109.16C192.096 111.453 189.688 112.6 187.166 112.6C186.134 112.6 185.102 112.313 184.242 111.74C183.325 111.167 182.866 110.536 182.866 109.848C182.866 109.504 183.325 108.759 184.242 107.67C185.102 106.638 185.732 106.065 186.134 106.065C186.65 106.065 187.108 106.753 187.51 108.071C187.911 109.39 188.599 110.02 189.573 110.02C190.548 110.02 191.465 109.562 192.268 108.644C193.127 107.727 193.586 106.81 193.586 105.778C193.586 104.746 193.013 103.428 191.924 101.708C190.834 100.046 190.146 98.6126 189.803 97.5235C187.911 100.504 185.561 103.543 182.752 106.695H182.178V104.517C186.076 100.39 188.713 96.377 190.089 92.6508Z" fill="#8A2666"/>
<path d="M148.7 57.1097C145.433 56.1352 143.025 56.3072 141.363 56.6511C137.694 57.4537 136.605 59.3454 133.337 59.3454C132.879 59.3454 129.726 59.2881 127.548 57.1097C124.223 53.7275 124.624 46.5619 128.751 43.0078C131.388 40.7148 134.771 40.7148 135.917 40.7721C135 39.9123 131.904 37.1607 127.204 36.874C126.573 36.8167 123.535 36.7021 120.21 38.4218C118.376 39.339 117.057 40.5428 113.618 45.0142C111.898 47.1925 109.72 50.1734 107.255 53.8422C104.618 56.9951 101.006 60.1479 96.2482 62.3836C95.7323 62.6129 95.2164 62.8422 94.7005 63.0715C94.1272 63.2435 93.4966 63.4154 92.9234 63.5874C90.1718 64.3326 87.3056 64.7339 84.382 64.7339C66.4966 64.7339 52.0508 50.2881 52.0508 32.4027C52.0508 21.511 57.4393 11.8804 65.6941 6.03328C76.8724 -1.87755 97.0508 -3.8266 102.955 11.4791C103.7 13.4855 104.159 15.7212 104.159 18.0142C104.159 24.4346 100.777 30.1097 95.675 33.3199C92.8661 35.097 89.5986 36.0715 86.0444 36.0715C83.8087 36.0715 81.6877 35.6702 79.7387 34.9823C75.1527 33.2626 71.4839 29.7658 69.5349 25.3517C72.6877 28.5046 77.0444 30.4537 81.917 30.4537C90.3438 30.4537 100.949 28.1033 100.949 17.4982C100.949 15.3199 100.433 13.2562 99.4011 11.4791C97.5667 8.21162 94.3565 6.14793 90.745 5.28805C84.2673 3.68296 77.1017 4.60016 71.1973 7.6957C69.4775 8.55557 66.8406 9.87404 64.3183 12.5683C60.3056 16.8677 58.9871 21.7403 58.2419 24.8358C57.8979 26.0396 57.1527 29.2498 57.21 32.8613C57.4966 52.5237 79.1081 67.8295 97.1654 58.7148C97.4521 58.4855 97.796 58.3135 98.0826 58.0842C107.14 51.9505 108.63 37.8486 120.267 35.0396C124.509 33.8358 129.095 34.3517 132.879 36.5301C135.229 38.0205 137.866 40.1989 138.726 42.7785C138.783 42.8931 138.783 42.9505 138.783 43.0651C138.726 43.1798 138.611 43.1798 138.554 43.1798C137.178 42.7212 135.974 42.4919 134.599 42.5492C132.019 42.7212 126.63 46.6193 127.261 51.4919C127.605 54.0142 129.439 56.4218 131.904 57.2817C133.853 57.9123 136.146 57.6256 137.809 56.4791C138.726 55.8486 139.471 55.4473 140.56 55.1607C141.592 54.9314 142.681 54.874 143.771 54.9887C146.293 55.2753 147.955 56.5365 148.7 57.1097Z" fill="#8A2666"/>
</svg>
